<?xml version="1.0" encoding="UTF-8" standalone="no"?>
<!-- Created with Inkscape (http://www.inkscape.org/) -->

<svg
   xmlns:dc="http://purl.org/dc/elements/1.1/"
   xmlns:cc="http://creativecommons.org/ns#"
   xmlns:rdf="http://www.w3.org/1999/02/22-rdf-syntax-ns#"
   xmlns:svg="http://www.w3.org/2000/svg"
   xmlns="http://www.w3.org/2000/svg"
   xmlns:sodipodi="http://sodipodi.sourceforge.net/DTD/sodipodi-0.dtd"
   xmlns:inkscape="http://www.inkscape.org/namespaces/inkscape"
   width="221.23061mm"
   height="157.88481mm"
   viewBox="0 0 221.23061 157.88481"
   version="1.1"
   id="svg11206"
   inkscape:version="0.92.4 5da689c313, 2019-01-14"
   sodipodi:docname="crux-venn-1.svg">
  <defs
     id="defs11200" />
  <sodipodi:namedview
     id="base"
     pagecolor="#ffffff"
     bordercolor="#666666"
     borderopacity="1.0"
     inkscape:pageopacity="0.0"
     inkscape:pageshadow="2"
     inkscape:zoom="0.98994949"
     inkscape:cx="85.415641"
     inkscape:cy="161.4931"
     inkscape:document-units="mm"
     inkscape:current-layer="layer1"
     showgrid="false"
     fit-margin-top="20"
     fit-margin-left="20"
     fit-margin-right="20"
     fit-margin-bottom="20"
     inkscape:window-width="3840"
     inkscape:window-height="2031"
     inkscape:window-x="0"
     inkscape:window-y="55"
     inkscape:window-maximized="1" />
  <metadata
     id="metadata11203">
    <rdf:RDF>
      <cc:Work
         rdf:about="">
        <dc:format>image/svg+xml</dc:format>
        <dc:type
           rdf:resource="http://purl.org/dc/dcmitype/StillImage" />
        <dc:title></dc:title>
      </cc:Work>
    </rdf:RDF>
  </metadata>
  <g
     inkscape:label="Layer 1"
     inkscape:groupmode="layer"
     id="layer1"
     transform="translate(6.0749321,6.2676239)">
    <path
       style="opacity:1;fill:#dbf2ff;fill-opacity:1;stroke:none;stroke-width:0.4190926;stroke-miterlimit:4;stroke-dasharray:none;stroke-dashoffset:0;stroke-opacity:1"
       d="m 70.93941,130.74574 c -9.820391,-0.35721 -19.54543,-3.20718 -28.06016,-8.22312 -6.64948,-3.91715 -12.492,-9.13594 -17.11468,-15.28757 -9.59742,-14.000141 -13.5842,-29.390573 -10.618,-45.230203 3.5421,-18.040051 15.03698,-33.100201 31.481921,-41.246421 6.915549,-3.425761 13.672089,-5.31566 21.64185,-6.053561 1.656419,-0.1532 6.49441,-0.2163 8.291129,-0.1079 8.025432,0.484101 15.384342,2.379201 22.608332,5.822001 1.817198,0.86607 5.245348,2.76295 5.202558,2.87872 -0.0111,0.0296 -0.45422,0.34354 -0.98508,0.69764 -9.981407,6.65779 -17.710869,16.13823 -22.155311,27.174159 -2.956949,7.34228 -4.366768,15.007082 -4.213339,22.906561 0.047,2.422451 0.107609,3.378811 0.349549,5.520351 1.493692,13.221512 7.538802,25.665413 17.037702,35.072333 2.710889,2.68466 5.607859,5.08012 8.483799,7.01518 l 0.98725,0.66424 -0.69027,0.40191 c -6.72684,3.91654 -14.619219,6.5867 -22.332119,7.55549 -2.311011,0.29024 -6.38247,0.54878 -7.981151,0.50678 -0.204139,-0.005 -1.074439,-0.0353 -1.93398,-0.0666 z"
       id="path5755"
       inkscape:connector-curvature="0"
       sodipodi:nodetypes="ccccscccccccccccccccc" />
    <path
       sodipodi:nodetypes="ccccscccccccccccccccc"
       inkscape:connector-curvature="0"
       id="path5785"
       d="m 137.87279,130.74574 c 9.82039,-0.35721 19.54543,-3.20718 28.06016,-8.22312 6.64948,-3.91715 12.492,-9.13594 17.11468,-15.28757 9.59742,-14.000141 13.5842,-29.390573 10.618,-45.230203 -3.5421,-18.040051 -15.03698,-33.100201 -31.48192,-41.246411 -6.91555,-3.425771 -13.67209,-5.31567 -21.64185,-6.053571 -1.65642,-0.1532 -6.49441,-0.2163 -8.29113,-0.1079 -8.02543,0.484101 -15.38434,2.379201 -22.60833,5.822001 -1.8172,0.86607 -5.24535,2.76295 -5.20256,2.87872 0.0111,0.0296 0.45422,0.34354 0.98508,0.69764 9.98141,6.65779 17.71087,16.13823 22.15531,27.174159 2.95695,7.34228 4.36677,15.007082 4.21334,22.906561 -0.047,2.422451 -0.10761,3.378811 -0.34955,5.520351 -1.49369,13.221512 -7.5388,25.665413 -17.0377,35.072333 -2.71089,2.68466 -5.60786,5.08012 -8.4838,7.01518 l -0.98725,0.66424 0.69027,0.40191 c 6.72684,3.91654 14.61922,6.5867 22.33212,7.55549 2.31101,0.29024 6.38247,0.54878 7.98115,0.50678 0.20414,-0.005 1.07444,-0.0353 1.93398,-0.0666 z"
       style="opacity:1;fill:#f0d3ff;fill-opacity:1;stroke:none;stroke-width:0.4190926;stroke-miterlimit:4;stroke-dasharray:none;stroke-dashoffset:0;stroke-opacity:1" />
    <path
       style="opacity:1;fill:#fffbf6;fill-opacity:1;stroke:none;stroke-width:0.58946794;stroke-miterlimit:4;stroke-dasharray:none;stroke-dashoffset:0;stroke-opacity:1"
       d="M 102.95907,120.54802 C 96.565971,116.18265 90.807191,110.19611 86.6602,103.60451 82.36497,96.777269 79.4465,88.854155 78.333789,80.999737 77.655649,76.212877 77.58038,70.844975 78.1267,66.235206 c 1.233421,-10.40679 5.06435,-19.956949 11.344712,-28.28136 1.779149,-2.3582 3.103349,-3.869321 5.377739,-6.13672 2.795579,-2.78704 5.244679,-4.807491 8.556459,-7.058901 l 1.44409,-0.981689 0.93045,0.630969 c 3.25046,2.204361 6.19476,4.675871 9.09252,7.632601 5.52119,5.63349 9.66924,12.031449 12.53013,19.326588 7.79638,19.880393 4.00783,42.353955 -9.88624,58.644946 -3.345,3.92207 -7.31395,7.46437 -11.7178,10.45812 -0.74796,0.50847 -1.41401,0.92449 -1.48016,0.92449 -0.0661,0 -0.6779,-0.38079 -1.35953,-0.84623 z"
       id="path5751"
       inkscape:connector-curvature="0"
       sodipodi:nodetypes="csccccccccsccsc" />
    <ellipse
       style="fill:none;fill-opacity:1;stroke:#0087d0;stroke-width:1;stroke-miterlimit:4;stroke-dasharray:none;stroke-dashoffset:0;stroke-opacity:1"
       id="path4551-1-0"
       cx="73.090729"
       cy="72.497139"
       rx="58.665661"
       ry="58.264763" />
    <rect
       style="fill:#ffffff;fill-opacity:0.78593271;stroke:none;stroke-width:1.00751197;stroke-miterlimit:4;stroke-dasharray:none;stroke-dashoffset:0;stroke-opacity:1"
       id="rect3900-3-3"
       width="48.852276"
       height="22.903114"
       x="22.896635"
       y="60.647106"
       ry="4.1421723" />
    <text
       xml:space="preserve"
       style="font-style:normal;font-weight:normal;font-size:7.04205608px;line-height:1.25;font-family:sans-serif;letter-spacing:0px;word-spacing:0px;fill:#0087d0;fill-opacity:1;stroke:none;stroke-width:0.17440762"
       x="47.271816"
       y="70.316475"
       id="text4555-3-7-8-6"><tspan
         sodipodi:role="line"
         x="47.271816"
         y="70.316475"
         style="font-weight:bold;font-size:7.04205608px;text-align:center;text-anchor:middle;fill:#0087d0;fill-opacity:1;stroke-width:0.17440762"
         id="tspan4593-7-1">Document</tspan><tspan
         sodipodi:role="line"
         x="47.271816"
         y="79.119041"
         style="font-weight:normal;font-size:7.04205608px;text-align:center;text-anchor:middle;fill:#0087d0;fill-opacity:1;stroke-width:0.17440762"
         id="tspan5790">Database</tspan></text>
    <ellipse
       style="fill:none;fill-opacity:1;stroke:#8600d0;stroke-width:1;stroke-miterlimit:4;stroke-dasharray:none;stroke-dashoffset:0;stroke-opacity:1"
       id="path4551-1-2-6"
       cx="135.99002"
       cy="72.852425"
       rx="58.665661"
       ry="58.264763" />
    <g
       transform="matrix(0.22212509,0,0,0.22212509,84.776494,49.972467)"
       id="g16529-1-9-8">
      <path
         id="path16521-0-3-8"
         d="m 36.22,160.03 -1.47,1.13 c -0.81,-1.06 -1.79,-1.86 -2.93,-2.41 -1.14,-0.55 -2.39,-0.82 -3.75,-0.82 -1.49,0 -2.87,0.36 -4.14,1.07 -1.27,0.72 -2.26,1.68 -2.96,2.88 -0.7,1.21 -1.05,2.56 -1.05,4.07 0,2.28 0.78,4.18 2.34,5.71 1.56,1.52 3.53,2.29 5.91,2.29 2.62,0 4.81,-1.03 6.57,-3.08 l 1.47,1.12 c -0.93,1.19 -2.09,2.1 -3.49,2.75 -1.39,0.65 -2.95,0.97 -4.67,0.97 -3.27,0 -5.85,-1.09 -7.74,-3.26 -1.58,-1.84 -2.38,-4.06 -2.38,-6.66 0,-2.74 0.96,-5.04 2.88,-6.91 1.92,-1.87 4.32,-2.8 7.21,-2.8 1.75,0 3.32,0.35 4.73,1.04 1.42,0.69 2.57,1.66 3.47,2.91 z"
         inkscape:connector-curvature="0" />
      <path
         id="path16523-3-6-4"
         d="m 66.09,156.56 h 3.72 c 2.08,0 3.48,0.08 4.22,0.25 1.11,0.25 2.01,0.8 2.71,1.63 0.7,0.84 1.04,1.86 1.04,3.08 0,1.02 -0.24,1.91 -0.72,2.68 -0.48,0.77 -1.16,1.36 -2.05,1.75 -0.89,0.39 -2.12,0.6 -3.68,0.6 l 6.72,8.68 h -2.31 l -6.72,-8.68 h -1.06 v 8.68 h -1.87 z m 1.87,1.83 v 6.35 l 3.22,0.03 c 1.25,0 2.17,-0.12 2.77,-0.36 0.6,-0.24 1.07,-0.62 1.4,-1.14 0.33,-0.52 0.5,-1.1 0.5,-1.75 0,-0.63 -0.17,-1.2 -0.51,-1.71 -0.34,-0.51 -0.78,-0.88 -1.34,-1.1 -0.55,-0.22 -1.47,-0.33 -2.75,-0.33 h -3.29 z"
         inkscape:connector-curvature="0" />
      <path
         id="path16525-7-0-3"
         d="m 107.87,156.56 h 1.87 v 11.28 c 0,1.34 0.03,2.17 0.08,2.5 0.09,0.74 0.31,1.35 0.65,1.85 0.34,0.5 0.86,0.91 1.56,1.25 0.7,0.34 1.41,0.5 2.12,0.5 0.62,0 1.21,-0.13 1.78,-0.39 0.57,-0.26 1.04,-0.63 1.42,-1.09 0.38,-0.47 0.66,-1.03 0.84,-1.69 0.13,-0.47 0.19,-1.45 0.19,-2.92 v -11.28 h 1.87 v 11.28 c 0,1.67 -0.16,3.02 -0.49,4.05 -0.33,1.03 -0.98,1.92 -1.96,2.69 -0.98,0.76 -2.16,1.14 -3.55,1.14 -1.51,0 -2.8,-0.36 -3.88,-1.08 -1.08,-0.72 -1.8,-1.67 -2.16,-2.86 -0.23,-0.73 -0.34,-2.04 -0.34,-3.94 z"
         inkscape:connector-curvature="0" />
      <path
         id="path16527-8-6-1"
         d="m 149.88,156.56 h 2.18 l 4.47,7.27 4.5,-7.27 h 2.16 l -5.57,9.03 5.94,9.66 h -2.18 l -4.85,-7.89 -4.87,7.89 h -2.19 l 5.97,-9.65 z"
         inkscape:connector-curvature="0" />
    </g>
    <g
       transform="matrix(0.22212509,0,0,0.22212509,84.776494,49.972467)"
       id="g16545-8-2-4">
      <line
         id="line16531-6-6-9"
         y2="10.99"
         x2="90.559998"
         y1="62.68"
         x1="90.860001"
         class="st0"
         style="fill:#c9c9c9;stroke:#c9c9c9;stroke-miterlimit:10" />
      <polygon
         id="polygon16533-0-1-2"
         points="91.08,61.92 139.14,97.04 138.34,97.39 90.86,62.68 42.8,97.39 42.36,96.78 90.86,61.76 "
         class="st1"
         style="fill:#c9c9c9" />
      <polygon
         id="polygon16535-4-8-0"
         points="43.19,96.18 41.91,97.1 90.12,132.34 90.56,132.66 139.59,97.25 139.59,45.94 90.78,10.69 90.56,10.53 42.31,45.8 43.13,47.05 90.56,12.38 138.09,46.71 138.09,96.48 90.56,130.81 " />
      <polygon
         id="polygon16537-6-7-6"
         points="90.56,81.07 42.31,45.8 42.31,47.66 90.12,82.61 90.56,82.93 90.57,82.92 90.57,81.07 " />
      <g
         id="g16543-7-9-8">
        <line
           id="line16539-6-2-9"
           y2="82.93"
           x2="90.57"
           y1="82.93"
           x1="90.57"
           class="st2"
           style="fill:#f8961d" />
        <polygon
           id="polygon16541-0-0-2"
           points="90.57,81.07 90.58,81.07 90.58,82.92 139.6,47.52 139.6,45.94 "
           class="st2"
           style="fill:#f8961d" />
      </g>
    </g>
    <rect
       ry="4.1421723"
       y="60.647106"
       x="137.97952"
       height="22.903114"
       width="48.852276"
       id="rect5794"
       style="fill:#ffffff;fill-opacity:0.78593271;stroke:none;stroke-width:1.00751197;stroke-miterlimit:4;stroke-dasharray:none;stroke-dashoffset:0;stroke-opacity:1" />
    <text
       id="text5800"
       y="70.316475"
       x="162.35471"
       style="font-style:normal;font-weight:normal;font-size:7.04205608px;line-height:1.25;font-family:sans-serif;letter-spacing:0px;word-spacing:0px;fill:#8600d0;fill-opacity:1;stroke:none;stroke-width:0.17440762"
       xml:space="preserve"><tspan
         id="tspan5796"
         style="font-weight:bold;font-size:7.04205608px;text-align:center;text-anchor:middle;fill:#8600d0;fill-opacity:1;stroke-width:0.17440762"
         y="70.316475"
         x="162.35471"
         sodipodi:role="line">Graph</tspan><tspan
         id="tspan5798"
         style="font-weight:normal;font-size:7.04205608px;text-align:center;text-anchor:middle;fill:#8600d0;fill-opacity:1;stroke-width:0.17440762"
         y="79.119041"
         x="162.35471"
         sodipodi:role="line">Database</tspan></text>
    <path
       style="opacity:1;fill:none;fill-opacity:1;stroke:#f8961d;stroke-width:1.39999998;stroke-miterlimit:4;stroke-dasharray:none;stroke-dashoffset:0;stroke-opacity:1"
       d="m 103.08311,121.10637 c -3.134339,-2.14687 -5.515958,-4.13906 -8.433918,-7.05482 -4.634662,-4.63117 -7.930892,-9.15759 -10.840483,-14.886171 -3.339468,-6.57497 -5.31667,-13.405912 -6.081908,-21.011773 -0.18583,-1.84699 -0.24678,-6.906109 -0.108101,-8.971571 0.84537,-12.59128 5.44917,-24.05198 13.6123,-33.88661 1.31114,-1.579599 5.49366,-5.758349 7.092881,-7.086439 2.779999,-2.3087 6.352799,-4.81606 6.641959,-4.66124 0.0933,0.0499 0.75932,0.503709 1.47978,1.008199 13.08803,9.164201 21.76608,22.88319 24.3579,38.50692 1.02282,6.165692 1.02282,12.697741 0,18.863432 -1.79317,10.809472 -6.58809,20.916063 -13.82193,29.133523 -1.90432,2.16327 -5.14939,5.24706 -7.42841,7.05926 -1.79062,1.42386 -5.07163,3.73481 -5.30256,3.73481 -0.0419,0 -0.56728,-0.33639 -1.16751,-0.74752 z"
       id="path5802"
       inkscape:connector-curvature="0"
       sodipodi:nodetypes="csscsscccccscsc" />
  </g>
</svg>
