<?xml version="1.0" encoding="UTF-8" standalone="no"?>
<!-- Generator: Adobe Illustrator 23.0.2, SVG Export Plug-In . SVG Version: 6.00 Build 0)  -->

<svg
   xmlns:dc="http://purl.org/dc/elements/1.1/"
   xmlns:cc="http://creativecommons.org/ns#"
   xmlns:rdf="http://www.w3.org/1999/02/22-rdf-syntax-ns#"
   xmlns:svg="http://www.w3.org/2000/svg"
   xmlns="http://www.w3.org/2000/svg"
   xmlns:sodipodi="http://sodipodi.sourceforge.net/DTD/sodipodi-0.dtd"
   xmlns:inkscape="http://www.inkscape.org/namespaces/inkscape"
   version="1.1"
   id="Layer_1"
   x="0px"
   y="0px"
   viewBox="0 0 887.99998 301.99999"
   xml:space="preserve"
   sodipodi:docname="crux-logo.svg"
   inkscape:version="0.92.4 5da689c313, 2019-01-14"
   width="888"
   height="302"><metadata
   id="metadata35"><rdf:RDF><cc:Work
       rdf:about=""><dc:format>image/svg+xml</dc:format><dc:type
         rdf:resource="http://purl.org/dc/dcmitype/StillImage" /><dc:title></dc:title><dc:title></dc:title></cc:Work></rdf:RDF></metadata><defs
   id="defs33" /><sodipodi:namedview
   pagecolor="#ffffff"
   bordercolor="#666666"
   borderopacity="1"
   objecttolerance="10"
   gridtolerance="10"
   guidetolerance="10"
   inkscape:pageopacity="0"
   inkscape:pageshadow="2"
   inkscape:window-width="3840"
   inkscape:window-height="2031"
   id="namedview31"
   showgrid="false"
   fit-margin-top="10"
   fit-margin-left="10"
   fit-margin-right="10"
   fit-margin-bottom="10"
   inkscape:zoom="2.4989411"
   inkscape:cx="458.73612"
   inkscape:cy="270.29515"
   inkscape:window-x="0"
   inkscape:window-y="55"
   inkscape:window-maximized="1"
   inkscape:current-layer="Layer_1" />
<style
   type="text/css"
   id="style2">
	.st0{fill:#C9C9C9;stroke:#C9C9C9;stroke-miterlimit:10;}
	.st1{fill:#C9C9C9;}
	.st2{fill:#F8961D;}
</style>
<g
   id="g12"
   transform="matrix(1.3002748,0,0,1.3002748,326.00656,33.07725)">
	<path
   d="m 36.22,160.03 -1.47,1.13 c -0.81,-1.06 -1.79,-1.86 -2.93,-2.41 -1.14,-0.55 -2.39,-0.82 -3.75,-0.82 -1.49,0 -2.87,0.36 -4.14,1.07 -1.27,0.72 -2.26,1.68 -2.96,2.88 -0.7,1.21 -1.05,2.56 -1.05,4.07 0,2.28 0.78,4.18 2.34,5.71 1.56,1.52 3.53,2.29 5.91,2.29 2.62,0 4.81,-1.03 6.57,-3.08 l 1.47,1.12 c -0.93,1.19 -2.09,2.1 -3.49,2.75 -1.39,0.65 -2.95,0.97 -4.67,0.97 -3.27,0 -5.85,-1.09 -7.74,-3.26 -1.58,-1.84 -2.38,-4.06 -2.38,-6.66 0,-2.74 0.96,-5.04 2.88,-6.91 1.92,-1.87 4.32,-2.8 7.21,-2.8 1.75,0 3.32,0.35 4.73,1.04 1.42,0.69 2.57,1.66 3.47,2.91 z"
   id="path4"
   inkscape:connector-curvature="0" />
	<path
   d="m 66.09,156.56 h 3.72 c 2.08,0 3.48,0.08 4.22,0.25 1.11,0.25 2.01,0.8 2.71,1.63 0.7,0.84 1.04,1.86 1.04,3.08 0,1.02 -0.24,1.91 -0.72,2.68 -0.48,0.77 -1.16,1.36 -2.05,1.75 -0.89,0.39 -2.12,0.6 -3.68,0.6 l 6.72,8.68 h -2.31 l -6.72,-8.68 h -1.06 v 8.68 h -1.87 z m 1.87,1.83 v 6.35 l 3.22,0.03 c 1.25,0 2.17,-0.12 2.77,-0.36 0.6,-0.24 1.07,-0.62 1.4,-1.14 0.33,-0.52 0.5,-1.1 0.5,-1.75 0,-0.63 -0.17,-1.2 -0.51,-1.71 -0.34,-0.51 -0.78,-0.88 -1.34,-1.1 -0.55,-0.22 -1.47,-0.33 -2.75,-0.33 h -3.29 z"
   id="path6"
   inkscape:connector-curvature="0" />
	<path
   d="m 107.87,156.56 h 1.87 v 11.28 c 0,1.34 0.03,2.17 0.08,2.5 0.09,0.74 0.31,1.35 0.65,1.85 0.34,0.5 0.86,0.91 1.56,1.25 0.7,0.34 1.41,0.5 2.12,0.5 0.62,0 1.21,-0.13 1.78,-0.39 0.57,-0.26 1.04,-0.63 1.42,-1.09 0.38,-0.47 0.66,-1.03 0.84,-1.69 0.13,-0.47 0.19,-1.45 0.19,-2.92 v -11.28 h 1.87 v 11.28 c 0,1.67 -0.16,3.02 -0.49,4.05 -0.33,1.03 -0.98,1.92 -1.96,2.69 -0.98,0.76 -2.16,1.14 -3.55,1.14 -1.51,0 -2.8,-0.36 -3.88,-1.08 -1.08,-0.72 -1.8,-1.67 -2.16,-2.86 -0.23,-0.73 -0.34,-2.04 -0.34,-3.94 z"
   id="path8"
   inkscape:connector-curvature="0" />
	<path
   d="m 149.88,156.56 h 2.18 l 4.47,7.27 4.5,-7.27 h 2.16 l -5.57,9.03 5.94,9.66 h -2.18 l -4.85,-7.89 -4.87,7.89 h -2.19 l 5.97,-9.65 z"
   id="path10"
   inkscape:connector-curvature="0" />
</g>
<g
   id="g28"
   transform="matrix(1.3002748,0,0,1.3002748,325.99356,33.07725)">
	<line
   class="st0"
   x1="90.860001"
   y1="62.68"
   x2="90.559998"
   y2="10.99"
   id="line14"
   style="fill:#c9c9c9;stroke:#c9c9c9;stroke-miterlimit:10" />
	<polygon
   class="st1"
   points="42.36,96.78 90.86,61.76 91.08,61.92 139.14,97.04 138.34,97.39 90.86,62.68 42.8,97.39 "
   id="polygon16"
   style="fill:#c9c9c9" />
	<polygon
   points="138.09,96.48 90.56,130.81 43.19,96.18 41.91,97.1 90.12,132.34 90.56,132.66 139.59,97.25 139.59,45.94 90.78,10.69 90.56,10.53 42.31,45.8 43.13,47.05 90.56,12.38 138.09,46.71 "
   id="polygon18" />
	<polygon
   points="90.57,82.92 90.57,81.07 90.56,81.07 42.31,45.8 42.31,47.66 90.12,82.61 90.56,82.93 "
   id="polygon20" />
	<g
   id="g26">
		<line
   class="st2"
   x1="90.57"
   y1="82.93"
   x2="90.57"
   y2="82.93"
   id="line22"
   style="fill:#f8961d" />
		<polygon
   class="st2"
   points="139.6,45.94 90.57,81.07 90.58,81.07 90.58,82.92 139.6,47.52 "
   id="polygon24"
   style="fill:#f8961d" />
	</g>
</g>
</svg>