<?xml version="1.0" encoding="UTF-8"?>
<svg width="84px" height="56px" viewBox="0 0 84 56" version="1.1" xmlns="http://www.w3.org/2000/svg" xmlns:xlink="http://www.w3.org/1999/xlink">
    <!-- Generator: Sketch 50 (54983) - http://www.bohemiancoding.com/sketch -->
    <title>timeline</title>
    <desc>Created with Sketch.</desc>
    <defs></defs>
    <g id="Page-1" stroke="none" stroke-width="1" fill="none" fill-rule="evenodd">
        <g id="001" transform="translate(-837.000000, -678.000000)" fill-rule="nonzero">
            <g id="Group-5" transform="translate(108.000000, 490.000000)">
                <g id="Group-12" transform="translate(649.000000, 188.000000)">
                    <g id="timeline" transform="translate(80.000000, 0.000000)">
                        <circle id="Oval" fill="#E94D4D" cx="41.6161119" cy="5.31947786" r="3.54627506"></circle>
                        <path d="M41.6161119,24.4150862 C39.6575478,24.4162611 38.0707506,26.0048858 38.0717949,27.9634499 C38.0729697,29.9204476 39.6591142,31.5065921 41.6161119,31.5077669 C43.574676,31.5077669 45.1623869,29.9200559 45.1623869,27.9614918 C45.1623869,26.0027972 43.574676,24.4150862 41.6161119,24.4150862 Z" id="Shape" fill="#E94D4D"></path>
                        <circle id="Oval" fill="#E94D4D" cx="41.6161119" cy="50.6032448" r="3.54627506"></circle>
                        <path d="M76.1416317,0 L55,0 L55,12.2757483 L76.1416317,12.2757483 L76.1416317,0 Z M58.4099953,3.4098648 L66.2528671,3.4098648 C66.8178275,3.4098648 67.2758788,3.86791608 67.2758788,4.43287646 C67.2758788,4.99783683 66.8178275,5.45588811 66.2528671,5.45588811 L58.4099953,5.45588811 C57.845035,5.45588811 57.3869837,4.99783683 57.3869837,4.43287646 C57.3869837,3.86791608 57.845035,3.4098648 58.4099953,3.4098648 Z M73.0725967,9.5478042 L58.4099953,9.5478042 C57.845035,9.5478042 57.3869837,9.08975291 57.3869837,8.52479254 C57.3869837,7.95983217 57.845035,7.50178089 58.4099953,7.50178089 L73.0727273,7.50178089 C73.6376876,7.50178089 74.0957389,7.95983217 74.0957389,8.52479254 C74.0956084,9.08975291 73.6376876,9.5478042 73.0725967,9.5478042 Z" id="Shape" fill="#E94D4D"></path>
                        <path d="M55.1875618,21.8235524 L55.1875618,34.0993007 L83.1489231,34.0993007 L83.1489231,21.8235524 L55.1875618,21.8235524 Z M58.5975571,25.2334172 L66.4404289,25.2334172 C67.0053893,25.2334172 67.4634406,25.6914685 67.4634406,26.2564289 C67.4634406,26.8213893 67.0053893,27.2794406 66.4404289,27.2794406 L58.5975571,27.2794406 C58.0325967,27.2794406 57.5745455,26.8213893 57.5745455,26.2564289 C57.5745455,25.6914685 58.0325967,25.2334172 58.5975571,25.2334172 Z M73.2601585,31.3713566 L58.5975571,31.3713566 C58.0325967,31.3713566 57.5745455,30.9133054 57.5745455,30.348345 C57.5745455,29.7833846 58.0325967,29.3253333 58.5975571,29.3253333 L73.260289,29.3253333 C73.8252494,29.3253333 74.2833007,29.7833846 74.2833007,30.348345 C74.2833007,30.9133054 73.8252494,31.3713566 73.2601585,31.3713566 Z" id="Shape" fill="#E94D4D"></path>
                        <path d="M55.1875618,55.9227226 L76.3290629,55.9227226 L76.3290629,43.6469744 L55.1875618,43.6469744 L55.1875618,55.9227226 Z M58.5975571,47.0569697 L66.4404289,47.0569697 C67.0053893,47.0569697 67.4634406,47.515021 67.4634406,48.0799814 C67.4634406,48.6449417 67.0053893,49.102993 66.4404289,49.102993 L58.5975571,49.102993 C58.0325967,49.102993 57.5745455,48.6449417 57.5745455,48.0799814 C57.5745455,47.515021 58.0325967,47.0569697 58.5975571,47.0569697 Z M58.5975571,51.1488858 L73.260289,51.1488858 C73.8252494,51.1488858 74.2833007,51.6069371 74.2833007,52.1718974 C74.2833007,52.7368578 73.8252494,53.1949091 73.260289,53.1949091 L58.5975571,53.1949091 C58.0325967,53.1949091 57.5745455,52.7368578 57.5745455,52.1718974 C57.5745455,51.6069371 58.0325967,51.1488858 58.5975571,51.1488858 Z" id="Shape" fill="#E94D4D"></path>
                        <path d="M0,0 L0,12.2757483 L27.9613613,12.2757483 L27.9613613,0 L0,0 Z M3.40999534,3.4098648 L11.2528671,3.4098648 C11.8178275,3.4098648 12.2758788,3.86791608 12.2758788,4.43287646 C12.2758788,4.99783683 11.8178275,5.45588811 11.2528671,5.45588811 L3.40999534,5.45588811 C2.84503497,5.45588811 2.38698368,4.99783683 2.38698368,4.43287646 C2.38698368,3.86791608 2.84503497,3.4098648 3.40999534,3.4098648 Z M18.0725967,9.5478042 L3.40999534,9.5478042 C2.84503497,9.5478042 2.38698368,9.08975291 2.38698368,8.52479254 C2.38698368,7.95983217 2.84503497,7.50178089 3.40999534,7.50178089 L18.0727273,7.50178089 C18.6376876,7.50178089 19.0957389,7.95983217 19.0957389,8.52479254 C19.0957389,9.08975291 18.6376876,9.5478042 18.0725967,9.5478042 Z" id="Shape" fill="#FF8D8D" transform="translate(13.980681, 6.137874) scale(-1, 1) translate(-13.980681, -6.137874) "></path>
                        <path d="M7,35.2757483 L28.1415012,35.2757483 L28.1415012,23 L7,23 L7,35.2757483 Z M10.4099953,26.4099953 L18.2528671,26.4099953 C18.8178275,26.4099953 19.2758788,26.8680466 19.2758788,27.433007 C19.2758788,27.9979674 18.8178275,28.4560186 18.2528671,28.4560186 L10.4099953,28.4560186 C9.84503497,28.4560186 9.38698368,27.9979674 9.38698368,27.433007 C9.38698368,26.8680466 9.84503497,26.4099953 10.4099953,26.4099953 Z M10.4099953,30.5019114 L25.0727273,30.5019114 C25.6376876,30.5019114 26.0957389,30.9599627 26.0957389,31.5249231 C26.0957389,32.0898834 25.6376876,32.5479347 25.0727273,32.5479347 L10.4099953,32.5479347 C9.84503497,32.5479347 9.38698368,32.0898834 9.38698368,31.5249231 C9.38698368,30.9599627 9.84503497,30.5019114 10.4099953,30.5019114 Z" id="Shape" fill="#FF8D8D" transform="translate(17.570751, 29.137874) scale(-1, 1) translate(-17.570751, -29.137874) "></path>
                        <polygon id="Shape" fill="#E94D4D" points="40.8659207 23.1875245 42.2298928 23.1875245 42.2298928 9.82062471 40.8659207 9.88876457"></polygon>
                        <rect id="Rectangle-path" fill="#E94D4D" x="40.8659207" y="32.7351981" width="1.36397203" height="13.6397203"></rect>
                    </g>
                </g>
            </g>
        </g>
    </g>
</svg>