<?xml version="1.0" encoding="UTF-8"?>
<svg width="67px" height="58px" viewBox="0 0 67 58" version="1.1" xmlns="http://www.w3.org/2000/svg" xmlns:xlink="http://www.w3.org/1999/xlink">
    <!-- Generator: Sketch 50 (54983) - http://www.bohemiancoding.com/sketch -->
    <title>blueprint</title>
    <desc>Created with Sketch.</desc>
    <defs></defs>
    <g id="Page-1" stroke="none" stroke-width="1" fill="none" fill-rule="evenodd">
        <g id="001" transform="translate(-665.000000, -1094.000000)" fill-rule="nonzero">
            <g id="Group-5" transform="translate(108.000000, 490.000000)">
                <g id="Group-15" transform="translate(468.000000, 604.000000)">
                    <g id="blueprint" transform="translate(89.000000, 0.000000)">
                        <g id="Group" transform="translate(16.619141, 16.125561)" fill="#FF8D8D">
                            <path d="M25.4428496,6.82065633 C25.4293496,6.52554467 25.4228496,6.37863886 25.4203496,6.32186996 C25.4253496,6.43410772 25.4438496,6.84709071 25.4428496,6.82065633 Z" id="Shape"></path>
                            <path d="M25.4262383,6.47155157 C25.4118437,6.10781614 25.1889902,5.76917937 24.8571309,5.61299552 L13.1919336,0.121721973 C12.9211855,-0.00572197309 12.607123,-0.00572197309 12.336375,0.121721973 L0.671177734,5.61299552 C0.328457031,5.77412108 0.0995839844,6.13369507 0.0995839844,6.51056502 L0.0995839844,20.2048072 C0.0995839844,20.5834978 0.316287109,20.929287 0.658353516,21.0962646 L12.3235508,26.7907982 C12.5979629,26.9250045 12.9303457,26.9247444 13.2047578,26.7907982 L24.8699551,21.0962646 C25.2120215,20.929287 25.4287246,20.5834978 25.4287246,20.2048072 L25.4287246,6.51043498 C25.4288555,6.49743049 25.4267617,6.48507623 25.4262383,6.47155157 Z M11.7647812,24.304861 L2.09833008,19.5860538 L2.09833008,8.10478475 L2.88021484,8.48646637 L11.7647812,12.823722 L11.7647812,24.304861 Z M12.7641543,11.0985471 L3.39894141,6.52669058 L12.7641543,2.1181704 L22.1293672,6.52669058 L12.7641543,11.0985471 Z M23.4299785,19.5860538 L13.7635273,24.304861 L13.7635273,12.823722 L23.0316426,8.29933184 L23.4299785,8.1049148 L23.4299785,19.5860538 Z" id="Shape"></path>
                            <path d="M25.4213235,6.34578346 C25.4198235,6.30678346 25.4193235,6.29878346 25.4213235,6.34578346 Z" id="Shape"></path>
                        </g>
                        <path d="M64.3629219,0.0931121076 L55.1510762,0.0931121076 C53.6969668,0.0931121076 52.513998,1.26871749 52.513998,2.71377578 L52.513998,4.66119731 L48.0467207,4.66119731 C47.4947559,4.66119731 47.0473477,5.10582063 47.0473477,5.65434978 C47.0473477,6.20287892 47.4947559,6.64750224 48.0467207,6.64750224 L52.513998,6.64750224 L52.513998,44.5680583 C52.513998,45.1165874 52.9614063,45.5612108 53.5133711,45.5612108 C54.0653359,45.5612108 54.5127441,45.1165874 54.5127441,44.5680583 L54.5127441,2.71377578 C54.5127441,2.3640852 54.7990645,2.07941704 55.1510762,2.07941704 L64.3629219,2.07941704 C64.7148027,2.07941704 65.0012539,2.36395516 65.0012539,2.71377578 L65.0012539,5.23027354 L59.7726367,5.23027354 C59.2206719,5.23027354 58.7732637,5.67489686 58.7732637,6.22342601 C58.7732637,6.77195516 59.2206719,7.21657848 59.7726367,7.21657848 L65.0012539,7.21657848 L65.0012539,9.02628251 L61.765625,9.02628251 C61.2136602,9.02628251 60.766252,9.47090583 60.766252,10.019435 C60.766252,10.5679641 61.2136602,11.0125874 61.765625,11.0125874 L65.0012539,11.0125874 L65.0012539,12.8224215 L61.765625,12.8224215 C61.2136602,12.8224215 60.766252,13.2670448 60.766252,13.815574 C60.766252,14.3641031 61.2136602,14.8087265 61.765625,14.8087265 L65.0012539,14.8087265 L65.0012539,16.6184305 L59.7726367,16.6184305 C59.2206719,16.6184305 58.7732637,17.0630538 58.7732637,17.611583 C58.7732637,18.1601121 59.2206719,18.6047354 59.7726367,18.6047354 L65.0012539,18.6047354 L65.0012539,20.4144395 L61.765625,20.4144395 C61.2136602,20.4144395 60.766252,20.8590628 60.766252,21.4075919 C60.766252,21.9561211 61.2136602,22.4007444 61.765625,22.4007444 L65.0012539,22.4007444 L65.0012539,24.2104484 L61.765625,24.2104484 C61.2136602,24.2104484 60.766252,24.6550717 60.766252,25.2036009 C60.766252,25.75213 61.2136602,26.1967534 61.765625,26.1967534 L65.0012539,26.1967534 L65.0012539,28.0064574 L59.7726367,28.0064574 C59.2206719,28.0064574 58.7732637,28.4510807 58.7732637,28.9996099 C58.7732637,29.548139 59.2206719,29.9927623 59.7726367,29.9927623 L65.0012539,29.9927623 L65.0012539,31.8025964 L61.765625,31.8025964 C61.2136602,31.8025964 60.766252,32.2472197 60.766252,32.7957489 C60.766252,33.344278 61.2136602,33.7889013 61.765625,33.7889013 L65.0012539,33.7889013 L65.0012539,35.5986054 L61.765625,35.5986054 C61.2136602,35.5986054 60.766252,36.0432287 60.766252,36.5917578 C60.766252,37.140287 61.2136602,37.5849103 61.765625,37.5849103 L65.0012539,37.5849103 L65.0012539,39.3947444 L59.7726367,39.3947444 C59.2206719,39.3947444 58.7732637,39.8393677 58.7732637,40.3878969 C58.7732637,40.936426 59.2206719,41.3810493 59.7726367,41.3810493 L65.0012539,41.3810493 L65.0012539,43.1907534 L61.765625,43.1907534 C61.2136602,43.1907534 60.766252,43.6353767 60.766252,44.1839058 C60.766252,44.732435 61.2136602,45.1770583 61.765625,45.1770583 L65.0012539,45.1770583 L65.0012539,46.9868924 L61.765625,46.9868924 C61.2136602,46.9868924 60.766252,47.4315157 60.766252,47.9800448 C60.766252,48.528574 61.2136602,48.9731973 61.765625,48.9731973 L65.0012539,48.9731973 L65.0012539,50.7829013 L59.7726367,50.7829013 C59.2206719,50.7829013 58.7732637,51.2275247 58.7732637,51.7760538 C58.7732637,52.324583 59.2206719,52.7692063 59.7726367,52.7692063 L65.0012539,52.7692063 L65.0012539,55.285574 C65.0012539,55.6353946 64.7149336,55.9199327 64.3629219,55.9199327 L55.1510762,55.9199327 C54.7990645,55.9199327 54.5127441,55.6353946 54.5127441,55.285574 L54.5127441,49.3924619 C54.5127441,48.8439327 54.0653359,48.3993094 53.5133711,48.3993094 C52.9614063,48.3993094 52.513998,48.8439327 52.513998,49.3924619 L52.513998,52.5213408 L4.45772461,52.5213408 C3.10189062,52.5213408 1.99874609,51.4250628 1.99874609,50.0775381 L1.99874609,49.9311076 C1.99874609,48.5030852 3.16784375,47.3411345 4.60507227,47.3411345 C5.15703711,47.3411345 5.60444531,46.8965112 5.60444531,46.3479821 L5.60444531,6.64750224 L43.6141211,6.64750224 C44.1660859,6.64750224 44.6134941,6.20287892 44.6134941,5.65434978 C44.6134941,5.10582063 44.1660859,4.66119731 43.6141211,4.66119731 L5.60444531,4.66119731 L5.60444531,2.07109417 C5.60444531,1.52256502 5.15703711,1.0779417 4.60507227,1.0779417 C2.06574609,1.0779417 0,3.13095964 0,5.65434978 L0,30.2580538 C0,30.806583 0.447408203,31.2512063 0.999373047,31.2512063 C1.55133789,31.2512063 1.99874609,30.806583 1.99874609,30.2580538 L1.99874609,5.65434978 C1.99874609,4.57783857 2.66298828,3.65256951 3.60569922,3.26230493 L3.60569922,45.4640673 C3.02062695,45.5932018 2.47716797,45.8336547 1.99874609,46.1612377 L1.99874609,35.6211031 C1.99874609,35.072574 1.55133789,34.6279507 0.999373047,34.6279507 C0.447408203,34.6279507 0,35.072574 0,35.6212332 L0,50.0783184 C0,52.5210807 1.99979297,54.508426 4.45772461,54.508426 L52.513998,54.508426 L52.513998,55.2862242 C52.513998,56.7312825 53.6969668,57.9068879 55.1510762,57.9068879 L64.3629219,57.9068879 C65.8170312,57.9068879 67,56.7312825 67,55.2862242 L67,2.71377578 C67,1.26871749 65.8170312,0.0931121076 64.3629219,0.0931121076 Z" id="Shape" fill="#E94D4D"></path>
                    </g>
                </g>
            </g>
        </g>
    </g>
</svg>