<?xml version="1.0" encoding="UTF-8"?>
<svg width="58px" height="58px" viewBox="0 0 58 58" version="1.1" xmlns="http://www.w3.org/2000/svg" xmlns:xlink="http://www.w3.org/1999/xlink">
    <!-- Generator: Sketch 50 (54983) - http://www.bohemiancoding.com/sketch -->
    <title>data</title>
    <desc>Created with Sketch.</desc>
    <defs></defs>
    <g id="Page-1" stroke="none" stroke-width="1" fill="none" fill-rule="evenodd">
        <g id="001" transform="translate(-1066.000000, -1007.000000)" fill="#E94D4D" fill-rule="nonzero">
            <g id="Group-5" transform="translate(108.000000, 490.000000)">
                <g id="Group-11" transform="translate(874.000000, 517.000000)">
                    <g id="data" transform="translate(84.000000, 0.000000)">
                        <circle id="Oval" cx="34.8" cy="4.88505" r="1.93333333"></circle>
                        <path d="M24.1666667,3.91838333 L4.83333333,3.91838333 C4.29949167,3.91838333 3.86666667,4.35120833 3.86666667,4.88505 C3.86666667,5.41889167 4.29949167,5.85171667 4.83333333,5.85171667 L24.1666667,5.85171667 C24.7005083,5.85171667 25.1333333,5.41889167 25.1333333,4.88505 C25.1333333,4.35120833 24.7005083,3.91838333 24.1666667,3.91838333 Z" id="Shape"></path>
                        <path d="M30.9333333,3.91838333 L28.0333333,3.91838333 C27.4994917,3.91838333 27.0666667,4.35120833 27.0666667,4.88505 C27.0666667,5.41889167 27.4994917,5.85171667 28.0333333,5.85171667 L30.9333333,5.85171667 C31.467175,5.85171667 31.9,5.41889167 31.9,4.88505 C31.9,4.35120833 31.467175,3.91838333 30.9333333,3.91838333 Z" id="Shape"></path>
                        <circle id="Oval" cx="34.8" cy="16.48505" r="1.93333333"></circle>
                        <path d="M24.1666667,15.5183833 L4.83333333,15.5183833 C4.29949167,15.5183833 3.86666667,15.9512083 3.86666667,16.48505 C3.86666667,17.0188917 4.29949167,17.4517167 4.83333333,17.4517167 L24.1666667,17.4517167 C24.7005083,17.4517167 25.1333333,17.0188917 25.1333333,16.48505 C25.1333333,15.9512083 24.7005083,15.5183833 24.1666667,15.5183833 Z" id="Shape"></path>
                        <path d="M30.9333333,15.5183833 L28.0333333,15.5183833 C27.4994917,15.5183833 27.0666667,15.9512083 27.0666667,16.48505 C27.0666667,17.0188917 27.4994917,17.4517167 28.0333333,17.4517167 L30.9333333,17.4517167 C31.467175,17.4517167 31.9,17.0188917 31.9,16.48505 C31.9,15.9512083 31.467175,15.5183833 30.9333333,15.5183833 Z" id="Shape"></path>
                        <path d="M24.1666667,27.1183833 L4.83333333,27.1183833 C4.29949167,27.1183833 3.86666667,27.5512083 3.86666667,28.08505 C3.86666667,28.6188917 4.29949167,29.0517167 4.83333333,29.0517167 L24.1666667,29.0517167 C24.7005083,29.0517167 25.1333333,28.6188917 25.1333333,28.08505 C25.1333333,27.5512083 24.7005083,27.1183833 24.1666667,27.1183833 Z" id="Shape"></path>
                        <path d="M24.1666667,38.7183833 L4.83333333,38.7183833 C4.29949167,38.7183833 3.86666667,39.1512083 3.86666667,39.68505 C3.86666667,40.2188917 4.29949167,40.6517167 4.83333333,40.6517167 L24.1666667,40.6517167 C24.7005083,40.6517167 25.1333333,40.2188917 25.1333333,39.68505 C25.1333333,39.1512083 24.7005083,38.7183833 24.1666667,38.7183833 Z" id="Shape"></path>
                        <path d="M58,26.63505 C58,24.86315 56.0531333,23.5223833 53.1666667,22.6291833 L53.1666667,4.88505 C53.1666667,4.35120833 52.7338417,3.91838333 52.2,3.91838333 L40.6,3.91838333 L40.6,2.95171667 C40.6,1.35007083 39.3016458,0.0517166667 37.7,0.0517166667 L2.9,0.0517166667 C1.29835417,0.0517166667 0,1.35007083 0,2.95171667 L0,6.81838333 C0,8.42002917 1.29835417,9.71838333 2.9,9.71838333 L4.83333333,9.71838333 L4.83333333,11.6517167 L2.9,11.6517167 C1.29835417,11.6517167 0,12.9500708 0,14.5517167 L0,18.4183833 C0,20.0200292 1.29835417,21.3183833 2.9,21.3183833 L4.83333333,21.3183833 L4.83333333,23.2517167 L2.9,23.2517167 C1.29835417,23.2517167 0,24.5500708 0,26.1517167 L0,30.0183833 C0,31.6200292 1.29835417,32.9183833 2.9,32.9183833 L4.83333333,32.9183833 L4.83333333,34.8517167 L2.9,34.8517167 C1.29835417,34.8517167 0,36.1500708 0,37.7517167 L0,41.6183833 C0,43.2200292 1.29835417,44.5183833 2.9,44.5183833 L4.83333333,44.5183833 L4.83333333,50.3183833 C4.83333333,50.852225 5.26615833,51.28505 5.8,51.28505 L28.0333333,51.28505 L28.0333333,52.70025 C28.0333333,56.14545 35.5733333,57.9482833 43.0166667,57.9482833 C50.46,57.9482833 58,56.14545 58,52.70025 L58,44.5183833 L57.9284667,44.5183833 C57.9722083,44.348975 57.9962542,44.1750958 58,44.00025 L58,35.8183833 L57.9284667,35.8183833 C57.9722083,35.648975 57.9962542,35.4750958 58,35.30025 L58,27.1183833 L57.9342667,27.1183833 C57.9728125,26.9599708 57.9948042,26.7980542 58,26.63505 Z M2.9,7.78505 C2.36615833,7.78505 1.93333333,7.352225 1.93333333,6.81838333 L1.93333333,2.95171667 C1.93333333,2.417875 2.36615833,1.98505 2.9,1.98505 L37.7,1.98505 C38.2338417,1.98505 38.6666667,2.417875 38.6666667,2.95171667 L38.6666667,6.81838333 C38.6666667,7.352225 38.2338417,7.78505 37.7,7.78505 L2.9,7.78505 Z M33.8333333,9.71838333 L33.8333333,11.6517167 L6.76666667,11.6517167 L6.76666667,9.71838333 L33.8333333,9.71838333 Z M2.9,19.38505 C2.36615833,19.38505 1.93333333,18.952225 1.93333333,18.4183833 L1.93333333,14.5517167 C1.93333333,14.017875 2.36615833,13.58505 2.9,13.58505 L37.7,13.58505 C38.2338417,13.58505 38.6666667,14.017875 38.6666667,14.5517167 L38.6666667,18.4183833 C38.6666667,18.952225 38.2338417,19.38505 37.7,19.38505 L2.9,19.38505 Z M28.0333333,26.63505 C28.0385292,26.7980542 28.0605208,26.9599708 28.0990667,27.1183833 L28.0333333,27.1183833 L28.0333333,35.30025 C28.0370792,35.4750958 28.061125,35.648975 28.1048667,35.8183833 L28.0333333,35.8183833 L28.0333333,44.00025 C28.0370792,44.1750958 28.061125,44.348975 28.1048667,44.5183833 L28.0333333,44.5183833 L28.0333333,49.3517167 L6.76666667,49.3517167 L6.76666667,44.5183833 L25.1333333,44.5183833 C25.667175,44.5183833 26.1,44.0855583 26.1,43.5517167 C26.1,43.017875 25.667175,42.58505 25.1333333,42.58505 L2.9,42.58505 C2.36615833,42.58505 1.93333333,42.152225 1.93333333,41.6183833 L1.93333333,37.7517167 C1.93333333,37.217875 2.36615833,36.78505 2.9,36.78505 L25.1333333,36.78505 C25.667175,36.78505 26.1,36.352225 26.1,35.8183833 C26.1,35.2845417 25.667175,34.8517167 25.1333333,34.8517167 L6.76666667,34.8517167 L6.76666667,32.9183833 L25.1333333,32.9183833 C25.667175,32.9183833 26.1,32.4855583 26.1,31.9517167 C26.1,31.417875 25.667175,30.98505 25.1333333,30.98505 L2.9,30.98505 C2.36615833,30.98505 1.93333333,30.552225 1.93333333,30.0183833 L1.93333333,26.1517167 C1.93333333,25.617875 2.36615833,25.18505 2.9,25.18505 L25.1333333,25.18505 C25.667175,25.18505 26.1,24.752225 26.1,24.2183833 C26.1,23.6845417 25.667175,23.2517167 25.1333333,23.2517167 L6.76666667,23.2517167 L6.76666667,21.3183833 L37.7,21.3183833 C39.3016458,21.3183833 40.6,20.0200292 40.6,18.4183833 L40.6,14.5517167 C40.6,12.9500708 39.3016458,11.6517167 37.7,11.6517167 L35.7666667,11.6517167 L35.7666667,9.71838333 L37.7,9.71838333 C39.3016458,9.71838333 40.6,8.42002917 40.6,6.81838333 L40.6,5.85171667 L51.2333333,5.85171667 L51.2333333,22.1274833 C48.5299292,21.5734625 45.7762583,21.3023125 43.0166667,21.3183833 C35.5733333,21.3183833 28.0333333,23.1453833 28.0333333,26.63505 Z M56.0666667,52.70025 C56.0666667,53.82545 51.4605,56.01495 43.0166667,56.01495 C34.5728333,56.01495 29.9666667,53.82545 29.9666667,52.70025 L29.9666667,46.71465 C32.6810667,48.38505 37.8691667,49.2482833 43.0166667,49.2482833 C48.1641667,49.2482833 53.3522667,48.38505 56.0666667,46.71465 L56.0666667,52.70025 Z M56.0666667,44.00025 C56.0666667,45.12545 51.4605,47.31495 43.0166667,47.31495 C34.5728333,47.31495 29.9666667,45.12545 29.9666667,44.00025 L29.9666667,38.01465 C32.6810667,39.68505 37.8691667,40.5482833 43.0166667,40.5482833 C48.1641667,40.5482833 53.3522667,39.68505 56.0666667,38.01465 L56.0666667,44.00025 Z M56.0666667,35.30025 C56.0666667,36.42545 51.4605,38.61495 43.0166667,38.61495 C34.5728333,38.61495 29.9666667,36.42545 29.9666667,35.30025 L29.9666667,29.3852167 C32.6810667,31.0817167 37.8691667,31.9517167 43.0166667,31.9517167 C48.1641667,31.9517167 53.3522667,31.0817167 56.0666667,29.3852167 L56.0666667,35.30025 Z M43.0166667,30.0183833 C34.5728333,30.0183833 29.9666667,27.78345 29.9666667,26.63505 C29.9666667,25.48665 34.5728333,23.2517167 43.0166667,23.2517167 C51.4605,23.2517167 56.0666667,25.4876167 56.0666667,26.63505 C56.0666667,27.78345 51.4605,30.0183833 43.0166667,30.0183833 Z" id="Shape"></path>
                    </g>
                </g>
            </g>
        </g>
    </g>
</svg>