<?xml version="1.0" encoding="UTF-8"?>
<svg width="247px" height="266px" viewBox="0 0 247 266" version="1.1" xmlns="http://www.w3.org/2000/svg" xmlns:xlink="http://www.w3.org/1999/xlink">
    <!-- Generator: Sketch 50 (54983) - http://www.bohemiancoding.com/sketch -->
    <title>edfaf58efe051c4257f9a7d5ee4634af</title>
    <desc>Created with Sketch.</desc>
    <defs></defs>
    <g id="Page-1" stroke="none" stroke-width="1" fill="none" fill-rule="evenodd">
        <g id="001" transform="translate(-173.000000, -3131.000000)" fill="#FF8D8D" fill-rule="nonzero">
            <g id="Group-18" transform="translate(135.000000, 3014.000000)">
                <g id="edfaf58efe051c4257f9a7d5ee4634af" transform="translate(38.000000, 117.000000)">
                    <path d="M242.744736,257.694286 L234.234208,257.694286 L234.234208,62.3471429 C234.234208,60.04 232.315167,58.1942857 229.978944,58.1942857 L204.419547,58.1942857 L204.419547,41.5557143 C204.419547,39.2485714 202.500507,37.4028571 200.164283,37.4028571 C197.82806,37.4028571 195.909019,39.2757143 195.909019,41.5557143 L195.909019,58.1942857 L187.398491,58.1942857 L187.398491,20.7914286 C187.398491,18.4842857 185.479451,16.6385714 183.143227,16.6385714 C180.807004,16.6385714 178.887963,18.5114286 178.887963,20.7914286 L178.887963,58.1942857 L170.377435,58.1942857 C168.013399,58.1942857 166.122171,60.0671429 166.122171,62.3471429 C166.122171,64.6271429 167.985587,66.5 170.321811,66.5 L225.695868,66.5 L225.695868,78.9585714 L170.321811,78.9585714 C167.957775,78.9585714 166.066547,80.8314286 166.066547,83.1114286 C166.066547,85.4185714 167.985587,87.2642857 170.321811,87.2642857 L225.695868,87.2642857 L225.695868,95.57 L170.321811,95.57 C167.957775,95.57 166.066547,97.4428571 166.066547,99.7228571 C166.066547,102.002857 167.985587,103.875714 170.321811,103.875714 L225.695868,103.875714 L225.695868,112.181429 L170.321811,112.181429 C167.957775,112.181429 166.066547,114.054286 166.066547,116.334286 C166.066547,118.614286 167.985587,120.487143 170.321811,120.487143 L225.695868,120.487143 L225.695868,128.792857 L170.321811,128.792857 C167.957775,128.792857 166.066547,130.665714 166.066547,132.945714 C166.066547,135.225714 167.985587,137.098571 170.321811,137.098571 L225.695868,137.098571 L225.695868,145.404286 L170.321811,145.404286 C167.957775,145.404286 166.066547,147.277143 166.066547,149.557143 C166.066547,151.837143 167.985587,153.71 170.321811,153.71 L225.695868,153.71 L225.695868,162.015714 L170.321811,162.015714 C167.957775,162.015714 166.066547,163.888571 166.066547,166.168571 C166.066547,168.448571 167.985587,170.321429 170.321811,170.321429 L225.695868,170.321429 L225.695868,178.627143 L170.321811,178.627143 C167.957775,178.627143 166.066547,180.5 166.066547,182.78 C166.066547,185.06 167.985587,186.932857 170.321811,186.932857 L225.695868,186.932857 L225.695868,195.238571 L170.321811,195.238571 C167.957775,195.238571 166.066547,197.111429 166.066547,199.391429 C166.066547,201.671429 167.985587,203.544286 170.321811,203.544286 L225.695868,203.544286 L225.695868,211.85 L170.321811,211.85 C167.957775,211.85 166.066547,213.722857 166.066547,216.002857 C166.066547,218.282857 167.985587,220.155714 170.321811,220.155714 L225.695868,220.155714 L225.695868,228.461429 L170.321811,228.461429 C167.957775,228.461429 166.066547,230.334286 166.066547,232.614286 C166.066547,234.921429 167.985587,236.767143 170.321811,236.767143 L225.695868,236.767143 L225.695868,257.558571 L157.556018,257.558571 L157.556018,4.15285714 C157.556018,1.84571429 155.636978,0 153.300754,0 L17.0210562,0 C14.6570206,0 12.7657921,1.87285714 12.7657921,4.15285714 L12.7657921,257.694286 L4.25526405,257.694286 C1.89122847,257.694286 0,259.567143 0,261.847143 C0,264.127143 1.89122847,266 4.25526405,266 L242.744736,266 C245.108772,266 247,264.127143 247,261.847143 C247,259.567143 245.080959,257.694286 242.744736,257.694286 Z M21.2763202,24.9442857 L149.04549,24.9442857 L149.04549,220.291429 L21.2763202,220.291429 L21.2763202,24.9442857 Z M149.04549,8.30571429 L149.04549,16.6114286 L21.2763202,16.6114286 L21.2763202,8.30571429 L149.04549,8.30571429 Z M21.2763202,228.597143 L149.04549,228.597143 L149.04549,257.694286 L140.534962,257.694286 L140.534962,241.055714 C140.534962,238.748571 138.615922,236.902857 136.279698,236.902857 C133.943475,236.902857 132.024434,238.775714 132.024434,241.055714 L132.024434,257.694286 L123.486094,257.694286 L123.486094,241.055714 C123.486094,238.748571 121.567053,236.902857 119.23083,236.902857 C116.866794,236.902857 114.975566,238.775714 114.975566,241.055714 L114.975566,257.694286 L106.465038,257.694286 L106.465038,241.055714 C106.465038,238.748571 104.545997,236.902857 102.209774,236.902857 C99.8457381,236.902857 97.9545096,238.775714 97.9545096,241.055714 L97.9545096,257.694286 L89.4439815,257.694286 L89.4439815,241.055714 C89.4439815,238.748571 87.5249409,236.902857 85.1887175,236.902857 C82.8246819,236.902857 80.9334534,238.775714 80.9334534,241.055714 L80.9334534,257.694286 L72.4229253,257.694286 L72.4229253,241.055714 C72.4229253,238.748571 70.5038847,236.902857 68.1676613,236.902857 C65.8036257,236.902857 63.9123973,238.775714 63.9123973,241.055714 L63.9123973,257.694286 L55.3462448,257.694286 L55.3462448,241.055714 C55.3462448,238.748571 53.4272041,236.902857 51.0909807,236.902857 C48.7269452,236.902857 46.8357167,238.775714 46.8357167,241.055714 L46.8357167,257.694286 L38.3251886,257.694286 L38.3251886,241.055714 C38.3251886,238.748571 36.406148,236.902857 34.0699246,236.902857 C31.705889,236.902857 29.8146605,238.775714 29.8146605,241.055714 L29.8146605,257.694286 L21.3041324,257.694286 L21.3041324,228.597143 L21.2763202,228.597143 Z" id="Shape"></path>
                    <path d="M67.9998597,34 C65.7777154,34 64,35.8759113 64,38.1596294 L64,208.840371 C64,211.151276 65.8038583,213 67.9998597,213 C70.222004,213 71.9997194,211.124089 71.9997194,208.840371 L71.9997194,38.1596294 C72.0258623,35.8759113 70.222004,34 67.9998597,34 Z" id="Shape"></path>
                    <path d="M85,34 C82.7777778,34 81,35.8759113 81,38.1596294 L81,208.840371 C81,211.151276 82.8039216,213 85,213 C87.2222222,213 89,211.124089 89,208.840371 L89,38.1596294 C89,35.8759113 87.1960784,34 85,34 Z" id="Shape"></path>
                    <path d="M50,34 C47.7777778,34 46,35.8759113 46,38.1596294 L46,208.840371 C46,211.151276 47.8039216,213 50,213 C52.2222222,213 54,211.124089 54,208.840371 L54,38.1596294 C54,35.8759113 52.1960784,34 50,34 Z" id="Shape"></path>
                    <path d="M33.9998597,34 C31.7777154,34 30,35.8759113 30,38.1596294 L30,208.840371 C30,211.151276 31.8038583,213 33.9998597,213 C36.222004,213 37.9997194,211.124089 37.9997194,208.840371 L37.9997194,38.1596294 C38.0258623,35.8759113 36.222004,34 33.9998597,34 Z" id="Shape"></path>
                    <path d="M135.99986,34 C133.777715,34 132,35.8759113 132,38.1596294 L132,208.840371 C132,211.151276 133.803858,213 135.99986,213 C138.195861,213 139.999719,211.124089 139.999719,208.840371 L139.999719,38.1596294 C140.025862,35.8759113 138.222004,34 135.99986,34 Z" id="Shape"></path>
                    <path d="M119,34 C116.777778,34 115,35.8759113 115,38.1596294 L115,208.840371 C115,211.151276 116.803922,213 119,213 C121.222222,213 123,211.124089 123,208.840371 L123,38.1596294 C123,35.8759113 121.196078,34 119,34 Z" id="Shape"></path>
                    <path d="M101.99986,34 C99.7777154,34 98,35.8759113 98,38.1596294 L98,208.840371 C98,211.151276 99.8038583,213 101.99986,213 C104.222004,213 105.999719,211.124089 105.999719,208.840371 L105.999719,38.1596294 C106.025862,35.8759113 104.222004,34 101.99986,34 Z" id="Shape"></path>
                </g>
            </g>
        </g>
    </g>
</svg>