<?xml version="1.0" encoding="UTF-8"?>
<svg width="109px" height="56px" viewBox="0 0 109 56" version="1.1" xmlns="http://www.w3.org/2000/svg" xmlns:xlink="http://www.w3.org/1999/xlink">
    <!-- Generator: Sketch 50 (54983) - http://www.bohemiancoding.com/sketch -->
    <title>node</title>
    <desc>Created with Sketch.</desc>
    <defs></defs>
    <g id="Page-1" stroke="none" stroke-width="1" fill="none" fill-rule="evenodd">
        <g id="001" transform="translate(-251.000000, -1009.000000)" fill="#E94D4D" fill-rule="nonzero">
            <g id="Group-5" transform="translate(108.000000, 490.000000)">
                <g id="Group-14" transform="translate(54.000000, 519.000000)">
                    <g id="node" transform="translate(89.000000, 0.000000)">
                        <path d="M106.364003,32.6754036 L76.4682279,32.6754036 C67.3342911,32.6754036 59.0763881,28.6179598 55.1472581,26.3309125 C55.9928692,25.8512305 56.705266,25.3968789 57.2026301,24.9941012 C59.5942644,23.0564322 68.2647169,20.3198256 74.3252756,21.5199435 C80.8866554,22.8191014 105.377803,22.0941015 106.417012,22.0626095 C107.371407,22.0336278 108.121141,21.2442747 108.091871,20.2995156 C108.062601,19.3547565 107.267694,18.6069363 106.311225,18.6411667 C106.146205,18.6461871 95.2830175,18.9681811 86.1264942,18.8371928 C85.5191938,14.6485325 80.1786376,5.45401812 68.5302236,3.35706364 C64.5238845,2.63571496 60.0950856,3.62543 55.9458524,5.28469172 C54.4484592,3.80023326 51.1943891,1.03030907 47.1414942,0.295268222 C41.882526,-0.658390798 37.2990787,0.878554284 34.3798881,2.33608483 C30.8709131,4.08822505 27.8459347,6.71232772 26.2883877,9.35559942 C24.1122471,13.0479189 23.0303995,16.3675833 22.623151,19.3752947 L1.7285591,19.3752947 C0.773933527,19.3752947 0,20.1415993 0,21.0868148 C0,22.0320304 0.773933527,22.798335 1.7285591,22.798335 L22.4297829,22.798335 C22.4901672,25.4370426 23.0163406,27.813089 23.6503761,29.9769068 C24.0071507,31.1945964 24.4067935,32.36733 24.8453866,33.4998999 L1.7285591,33.4998999 C0.773933527,33.4998999 0,34.2662045 0,35.21142 C0,36.1566355 0.773933527,36.9229402 1.7285591,36.9229402 L26.3614482,36.9229402 C29.889783,43.9362933 35.2967158,49.0751895 42.7477275,52.5244731 C48.2722023,55.0819406 53.2854847,56 57.6373051,56 C62.246335,56 66.1134675,54.9698931 69.0575493,53.7661239 C76.9305598,50.5475533 83.3677139,43.9477034 86.2993501,36.0986721 L106.364464,36.0986721 C107.31932,36.0986721 108.093023,35.3323674 108.093023,34.3871519 C108.093023,33.4419364 107.318859,32.6754036 106.364003,32.6754036 Z M67.0879138,34.9156693 C65.3708785,36.0025987 62.595504,36.9437066 59.3393596,37.1764733 C53.7298396,37.5776537 48.5301034,35.0692497 45.2767247,30.9542989 C47.1089973,30.1875379 49.4185827,29.188923 51.5656836,28.1674877 C53.7095578,29.5693368 59.5622285,33.0695096 67.0879138,34.9156693 Z M67.9118603,6.72487887 C73.6087302,7.75042173 77.2433138,10.7339436 79.2892363,13.0561342 C81.3141857,15.3545916 82.2688113,17.5113352 82.593089,18.7591475 C79.3330265,18.6571409 76.5675624,18.4732095 75.0031012,18.1635384 C68.0911695,16.7947787 58.4356689,19.9325657 55.0138133,22.344668 C51.6848389,24.6912762 48.0590134,26.0853664 43.4250922,28.0120817 C42.6018371,26.3215562 42.0646009,24.465812 41.8878269,22.4998459 C41.710592,20.5300003 41.9399142,18.7949753 42.5691097,17.3358473 C43.5583064,16.5343995 46.9956038,13.8329361 51.3508813,11.3443858 C57.9675751,7.56306733 63.6934847,5.96496393 67.9118603,6.72487887 Z M67.7380825,50.6020937 C60.449325,53.5817361 52.3142649,53.1741662 44.2117018,49.4234268 C35.4430672,45.3641575 29.803355,38.6910546 26.9705924,29.0230196 C25.5441854,24.1549999 24.8357067,18.6119567 29.2741855,11.0808117 C31.569251,7.1867611 39.0315559,2.30299544 46.5185215,3.66239884 C48.972384,4.10739407 51.137001,5.61581382 52.5341377,6.81707275 C45.7738583,10.1723368 40.4210869,14.6439684 40.0387296,14.966647 C39.8557329,15.1211403 39.7070768,15.3119177 39.6026718,15.5266564 C38.5876619,17.6142546 38.1979294,20.062413 38.4445372,22.8031272 C39.3530679,32.9070293 48.0537125,40.6412747 58.1692403,40.6412747 C58.638717,40.6412747 59.1134945,40.6246159 59.5885026,40.5906137 C64.7926178,40.2188715 69.3221341,38.3072176 71.2949962,35.7287555 C72.9693938,35.9635761 74.6995662,36.0984439 76.4684584,36.0984439 L82.5799519,36.0984439 C79.795128,42.5424313 74.3338031,47.9054226 67.7380825,50.6020937 Z" id="Shape"></path>
                    </g>
                </g>
            </g>
        </g>
    </g>
</svg>