<?xml version="1.0" encoding="utf-8"?>
<!DOCTYPE svg PUBLIC "-//W3C//DTD SVG 1.1//EN" "http://www.w3.org/Graphics/SVG/1.1/DTD/svg11.dtd">
<svg version="1.1" xmlns="http://www.w3.org/2000/svg" xmlns:xlink="http://www.w3.org/1999/xlink" x="0px" y="0px" width="400px" height="130px" viewBox="0 0 400 130" xml:space="preserve">
  <g>
    <!-- visibility is visible/hidden -->
    <g id="background" style="visibility: hidden">
      <rect x="0.25" fill="#FF0000" width="400" height="130"/>
    </g>


    <g transform="translate(-250,-220)">
      <g id="juxt">
        <path fill="#ffffff" d="M282.606,320.424c11.27,0.101,18.179-2.543,20.722-7.93c2.543-5.386,3.815-12.916,3.815-22.592v-59.099
                                h23.49v63.886c0,1.197-0.026,2.319-0.075,3.367c-0.051,1.047-0.074,2.121-0.074,3.217c-0.299,4.689-1.148,9.276-2.543,13.764
                                c-1.398,4.489-3.691,8.529-6.883,12.119c-4.488,5.087-9.701,8.206-15.634,9.351c-5.936,1.148-12.045,1.721-18.328,1.721
                                c-0.3,0-0.576,0-0.823,0c-0.25,0-0.475,0-0.673,0h-29.475v-17.804H282.606z"/>
        <path fill="#ffffff" d="M373.541,295.429c0,8.978,1.577,15.685,4.735,20.123c3.156,4.439,9.567,6.658,19.236,6.658
                                c9.666,0,16.054-2.219,19.161-6.658c3.107-4.439,4.661-11.098,4.661-19.976v-63.773h22.344v64.217c0,1.283,0,2.566,0,3.847
                                c0,1.283-0.051,2.515-0.15,3.699c-0.099,3.75-0.567,7.424-1.405,11.023c-0.839,3.602-2.392,6.98-4.661,10.136
                                c-3.158,4.342-7.227,7.547-12.207,9.618c-4.983,2.072-10.136,3.404-15.463,3.995c-2.072,0.296-4.143,0.492-6.215,0.592
                                c-2.071,0.097-4.094,0.148-6.066,0.148c-1.875,0-3.825-0.051-5.845-0.148c-2.023-0.1-4.069-0.296-6.141-0.592
                                c-5.426-0.492-10.653-1.775-15.685-3.847c-5.031-2.072-9.174-5.327-12.429-9.766c-2.271-3.156-3.798-6.533-4.587-10.136
                                c-0.791-3.6-1.234-7.273-1.332-11.023c-0.099-1.183-0.148-2.416-0.148-3.699c0-1.281,0-2.516,0-3.699v-64.365h22.195V295.429z"/>
        <path fill="#ffffff" d="M546.232,250.506l12.24-18.702h85.905v18.702h-34.861v88.573h-23.34v-88.573H546.232z"/>
        <polygon fill="#ffffff" points="478.443,231.804 454.064,231.804 490.272,285.516 452.868,339.229 479.499,339.229
                                        503.438,301.824 526.03,339.229 551.834,339.229  "/>
        <g id="orange-tick">
          <!-- fill="#FFC700" -->
          <polygon
            fill="#f4901d"
            points="550.567,231.804 524.534,231.804 505.046,261.898 518.093,279.489"/>
        </g>
      </g>
    </g>
  </g>
</svg>
