<?xml version="1.0" encoding="UTF-8"?>
<svg width="81px" height="56px" viewBox="0 0 81 56" version="1.1" xmlns="http://www.w3.org/2000/svg" xmlns:xlink="http://www.w3.org/1999/xlink">
    <!-- Generator: Sketch 50 (54983) - http://www.bohemiancoding.com/sketch -->
    <title>wind</title>
    <desc>Created with Sketch.</desc>
    <defs></defs>
    <g id="Page-1" stroke="none" stroke-width="1" fill="none" fill-rule="evenodd">
        <g id="001" transform="translate(-1170.000000, -501.000000)" fill-rule="nonzero">
            <g id="Group-5" transform="translate(108.000000, 490.000000)">
                <g id="Group-9" transform="translate(974.000000, 11.000000)">
                    <g id="wind" transform="translate(88.388889, 0.000000)">
                        <path d="M1.09238378,30.8700161 C5.83304377,34.9554259 11.2060422,39.5862069 21.5990878,39.5862069 C31.9924464,39.5860496 37.3657578,34.9554259 42.1065743,30.8700161 C46.5899164,27.0064976 50.4618937,23.6696367 58.5379823,23.6696367 C66.6142275,23.6696367 70.4862048,27.0064976 74.9693904,30.8700161 C76.2818056,32.0008595 78.2580197,31.8489482 79.3835508,30.5304958 C80.5090819,29.2118861 80.3578842,27.2263446 79.0454689,26.0955011 C74.3046524,22.0100914 68.9313409,17.3793103 58.5379823,17.3793103 C48.1446237,17.3793103 42.7713123,22.0099341 38.0304958,26.0955011 C33.5471537,29.9590196 29.6751764,33.2958805 21.5990878,33.2958805 C13.5231556,33.2958805 9.6516479,29.9591769 5.16861886,26.0955011 C3.8563601,24.9646577 1.88014599,25.1164118 0.754458369,26.4350215 C-0.371229251,27.7534739 -0.219874979,29.7391727 1.09238378,30.8700161 Z" id="Shape" fill="#FF8D8D"></path>
                        <path d="M1.09238666,13.4907058 C5.83290264,17.5762728 11.2059152,22.2068966 21.5991447,22.2068966 C31.9925308,22.2068966 37.3658564,17.5762728 42.1066854,13.4907058 C46.5900393,9.6271873 50.4618703,6.2903264 58.5381368,6.2903264 C66.6140903,6.2903264 70.4860777,9.62703004 74.9695881,13.4907058 C76.2820069,14.6218637 78.2580697,14.4694806 79.3836038,13.1508709 C80.5092943,11.8324185 80.3576266,9.84656243 79.0453644,8.71587626 C74.3045354,4.63030926 68.9312098,0 58.5381368,0 C48.1447508,0 42.7714251,4.63062378 38.0305961,8.71619078 C33.5472422,12.5797093 29.6752547,15.9165702 21.5991447,15.9165702 C13.5233478,15.9165702 9.65167336,12.5798665 5.1686325,8.71619078 C3.85637028,7.58519009 1.87999443,7.73710147 0.75446036,9.05571115 C-0.371230231,10.3741636 -0.219875559,12.3598623 1.09238666,13.4907058 Z" id="Shape" fill="#E94D4D"></path>
                        <path d="M79.0454671,42.5092942 C74.3046429,38.4238845 68.9313227,33.7931034 58.5379472,33.7931034 C48.1445717,33.7931034 42.7712514,38.4237272 38.0304272,42.5092942 C33.5470778,46.3728127 29.6750943,49.7096736 21.5989925,49.7096736 C13.5235167,49.7096736 9.65168966,46.37297 5.16865333,42.5096087 L5.16834029,42.5092942 C3.85607939,41.3787653 1.88001858,41.5306767 0.754329128,42.8489719 C-0.371203806,44.1674243 -0.219849287,46.1531231 1.09241161,47.2839665 C5.83307932,51.3695335 11.206243,56 21.5989925,56 C31.992368,56 37.3656882,51.3693762 42.1065124,47.2838092 C46.5898618,43.4202907 50.4618453,40.0834298 58.5379472,40.0834298 C66.6142055,40.0834298 70.4861891,43.4202907 74.9693819,47.2838092 C76.2817994,48.4146527 78.2580167,48.2627413 79.3835496,46.9442889 C80.5090826,45.6256792 80.3578846,43.6401377 79.0454671,42.5092942 Z" id="Shape" fill="#E94D4D"></path>
                    </g>
                </g>
            </g>
        </g>
    </g>
</svg>