<?xml version="1.0" encoding="UTF-8"?>
<svg width="56px" height="56px" viewBox="0 0 56 56" version="1.1" xmlns="http://www.w3.org/2000/svg" xmlns:xlink="http://www.w3.org/1999/xlink">
    <!-- Generator: Sketch 50 (54983) - http://www.bohemiancoding.com/sketch -->
    <title>intelligence</title>
    <desc>Created with Sketch.</desc>
    <defs></defs>
    <g id="Page-1" stroke="none" stroke-width="1" fill="none" fill-rule="evenodd">
        <g id="001" transform="translate(-198.000000, -490.000000)" fill="#E94D4D" fill-rule="nonzero">
            <g id="Group-5" transform="translate(108.000000, 490.000000)">
                <g id="Group-13">
                    <g id="intelligence" transform="translate(90.000000, 0.000000)">
                        <path d="M41.8962963,54.514308 L41.8416062,54.2243743 C41.3737388,51.7339571 41.2343392,49.1929981 41.4271189,46.6663392 L39.1041559,46.4916803 C38.9255673,48.8519766 39.0142066,51.2249357 39.3684366,53.5653645 L16.7501131,53.5653645 L19.7297934,44.6181365 C19.7996569,44.4083275 19.8082807,44.1830175 19.7546823,43.9685146 C19.5989084,43.3445458 18.9668616,42.9649903 18.3430019,43.1207641 C18.2940975,43.1300429 13.9637583,44.187384 10.8419493,43.1452164 C8.5597037,42.3837037 8.7577232,36.6327329 9.21183626,33.966347 C9.2228616,33.901614 9.22842885,33.836117 9.22842885,33.7705107 C9.22831969,33.1274386 8.7068538,32.606191 8.06378168,32.6064094 L3.84042105,32.6064094 C3.00664327,32.6064094 2.32994932,31.9322261 2.32667446,31.0985575 C2.32612865,30.7965068 2.41706043,30.5014425 2.58746199,30.2520078 L8.44552047,21.6121793 C8.61952437,21.3532476 8.68360234,21.0358051 8.62367251,20.7296062 C8.61439376,20.6679298 7.35794152,14.0099337 11.6290058,8.81557895 C15.1653021,4.51318519 21.437848,2.33224172 30.2720936,2.33224172 L30.2720936,0.0032748538 C20.690308,0.0032748538 13.8052554,2.47873684 9.80906043,7.36110721 C6.87741131,11.1447641 5.59694347,15.9514854 6.25769981,20.6922729 L0.660538012,28.9430487 C0.232951267,29.5765146 0.00414814815,30.3231813 0.00305653021,31.087423 C0.000218323587,33.2095283 1.71831579,34.9322105 3.84042105,34.9350487 L6.73157115,34.9350487 C6.42297076,37.8134269 6.22626121,44.0604288 10.1094737,45.3574893 C12.3202183,45.9723977 14.6373957,46.1047018 16.9037037,45.745232 L14.0300195,54.3616998 C13.9905029,54.4804678 13.970308,54.6048031 13.970308,54.7299025 C13.9704172,55.3729747 14.491883,55.8942222 15.1349552,55.8940039 L40.7516257,55.8940039 C40.824,55.8940039 40.8962651,55.8872359 40.9673294,55.8739181 C41.5993762,55.7550409 42.0152827,55.1462456 41.8962963,54.514308 Z" id="Shape"></path>
                        <path d="M50.2061287,3.01624951 C43.833154,-1.88293177 34.6952203,-0.688046784 29.7961481,5.68492788 C24.8969669,12.0579025 26.0918519,21.1958363 32.4648265,26.0949084 C34.7923743,27.9578635 36.1313528,30.7895205 36.0942378,33.7706199 L36.0942378,38.4282261 C36.0942378,39.0712982 36.6155945,39.592655 37.2586667,39.592655 L46.57377,39.592655 C47.2168421,39.592655 47.7381988,39.0712982 47.7381988,38.4282261 L47.7381988,32.7879454 C47.7533723,29.953232 48.9673606,27.2573723 51.0799688,25.3672359 C51.735922,24.7760156 52.3366394,24.1263938 52.874807,23.4263392 C57.7738791,17.0532554 56.5791033,7.9154308 50.2061287,3.01624951 Z M49.5196101,23.6404055 C46.9189396,25.9721014 45.4259337,29.2949864 45.4093411,32.7878363 L45.4093411,37.2637973 L38.4229864,37.2637973 L38.4229864,33.7706199 C38.457154,30.0667602 36.7817388,26.5539337 33.8818558,24.2494191 C30.9515166,22.0084366 29.1957583,18.5593606 29.107883,14.8714386 C29.0400936,8.22468616 34.2169825,2.70240936 40.8542378,2.34141131 C41.0140507,2.33518908 41.1740819,2.33202339 41.3341131,2.33202339 C48.086425,2.33202339 53.5602339,7.80594152 53.5601248,14.5582534 C53.5575049,18.0206472 52.0896062,21.3201715 49.5196101,23.6404055 Z" id="Shape"></path>
                        <path d="M45.409232,38.4282261 C45.409232,40.3574425 43.845271,41.9214035 41.9160546,41.9214035 L27.943345,41.9214035 L27.943345,44.250152 L41.9160546,44.250152 C45.1298869,44.2463314 47.7341598,41.6419493 47.7379805,38.4282261 L45.409232,38.4282261 Z" id="Shape"></path>
                        <rect id="Rectangle-path" x="33.7653801" y="32.6063002" width="16.3014581" height="2.32874854"></rect>
                        <path d="M26.7790253,39.592655 C24.849809,39.592655 23.285848,41.156616 23.285848,43.0858324 C23.285848,45.0150487 24.849809,46.5790097 26.7790253,46.5790097 C28.7082417,46.5790097 30.2722027,45.0150487 30.2722027,43.0858324 C30.2722027,41.156616 28.7082417,39.592655 26.7790253,39.592655 Z M26.7790253,44.250152 C26.1359532,44.250152 25.6145965,43.7287953 25.6145965,43.0857232 C25.6145965,42.4426511 26.1359532,41.9212943 26.7790253,41.9212943 C27.4220975,41.9212943 27.9434542,42.4426511 27.9434542,43.0857232 C27.9434542,43.7287953 27.4220975,44.250152 26.7790253,44.250152 Z" id="Shape"></path>
                        <path d="M17.4638129,31.4418713 C15.5345965,31.4418713 13.9706355,33.0058324 13.9706355,34.9350487 C13.9706355,36.8642651 15.5345965,38.4282261 17.4638129,38.4282261 C19.3930292,38.4282261 20.9569903,36.8642651 20.9569903,34.9350487 C20.9569903,33.0058324 19.3931384,31.4418713 17.4638129,31.4418713 Z M17.4638129,36.0994776 C16.8207407,36.0994776 16.299384,35.5781209 16.299384,34.9350487 C16.299384,34.2919766 16.8207407,33.7706199 17.4638129,33.7706199 C18.106885,33.7706199 18.6282417,34.2919766 18.6282417,34.9350487 C18.6282417,35.5781209 18.106885,36.0994776 17.4638129,36.0994776 Z" id="Shape"></path>
                        <path d="M27.943345,33.7706199 L19.7925614,33.7706199 L19.7925614,36.0993684 L27.943345,36.0993684 C30.5156335,36.0993684 32.6009513,38.184577 32.6009513,40.7569747 L34.9296998,40.7569747 C34.9258791,36.9001793 31.8002495,33.7745497 27.943345,33.7706199 Z" id="Shape"></path>
                        <path d="M12.8063158,23.2910877 C10.8770994,23.2910877 9.3131384,24.8550487 9.3131384,26.7842651 C9.3131384,28.7134815 10.8770994,30.2774425 12.8063158,30.2774425 C14.7355322,30.2774425 16.2994932,28.7134815 16.2994932,26.7842651 C16.2994932,24.8550487 14.7355322,23.2910877 12.8063158,23.2910877 Z M12.8063158,27.948694 C12.1632437,27.948694 11.6418869,27.4273372 11.6418869,26.7842651 C11.6418869,26.141193 12.1632437,25.6198363 12.8063158,25.6198363 C13.4493879,25.6198363 13.9707446,26.141193 13.9707446,26.7842651 C13.9706355,27.4273372 13.4493879,27.948694 12.8063158,27.948694 Z" id="Shape"></path>
                        <path d="M22.1214191,4.66088109 C20.1922027,4.66088109 18.6282417,6.22484211 18.6282417,8.15405848 C18.6282417,10.0832749 20.1922027,11.6472359 22.1214191,11.6472359 C24.0506355,11.6472359 25.6145965,10.0832749 25.6145965,8.15405848 C25.6145965,6.22473294 24.0506355,4.66088109 22.1214191,4.66088109 Z M22.1214191,9.31837817 C21.478347,9.31837817 20.9569903,8.79702144 20.9569903,8.15394932 C20.9569903,7.51087719 21.478347,6.98952047 22.1214191,6.98952047 C22.7644912,6.98952047 23.285848,7.51087719 23.285848,8.15394932 C23.285848,8.7971306 22.7644912,9.31837817 22.1214191,9.31837817 Z" id="Shape"></path>
                        <path d="M15.1350643,12.8115556 C13.205848,12.8115556 11.6418869,14.3755166 11.6418869,16.3047329 C11.6418869,18.2339493 13.205848,19.7979103 15.1350643,19.7979103 C17.0642807,19.7979103 18.6282417,18.2339493 18.6282417,16.3047329 C18.6282417,14.3755166 17.0642807,12.8115556 15.1350643,12.8115556 Z M15.1350643,17.4691618 C14.4919922,17.4691618 13.9706355,16.9478051 13.9706355,16.3047329 C13.9706355,15.6616608 14.4919922,15.1403041 15.1350643,15.1403041 C15.7781365,15.1403041 16.2994932,15.6616608 16.2994932,16.3047329 C16.2994932,16.9478051 15.7781365,17.4691618 15.1350643,17.4691618 Z" id="Shape"></path>
                        <path d="M22.1214191,25.6199454 L15.1350643,25.6199454 L15.1350643,27.948694 L22.1214191,27.948694 C24.6937076,27.948694 26.7790253,30.0340117 26.7790253,32.6063002 L29.1077739,32.6063002 C29.1039532,28.7493957 25.9783236,25.6237661 22.1214191,25.6199454 Z" id="Shape"></path>
                        <path d="M17.4638129,15.1404133 L17.4638129,17.4691618 C19.3930292,17.4691618 20.9569903,19.0331228 20.9569903,20.9623392 L20.9569903,24.4555166 L23.2857388,24.4555166 L23.2857388,20.9623392 C23.2820273,17.7485068 20.6776452,15.1442339 17.4638129,15.1404133 Z" id="Shape"></path>
                        <rect id="Rectangle-path" x="20.9569903" y="10.482807" width="2.32874854" height="4.65760624"></rect>
                        <path d="M49.2436491,11.9860741 L45.2614269,15.9682963 L42.5624016,14.1693099 C42.1711657,13.9083041 41.6611618,13.9083041 41.2699259,14.1693099 L38.5709006,15.9682963 L34.5886784,11.9860741 L32.942191,13.6325614 L37.5997973,18.2901676 C37.9923431,18.6828226 38.6073606,18.7437349 39.0692242,18.4356803 L41.9161637,16.5376842 L44.7631033,18.4379727 C44.9544639,18.5655828 45.1793372,18.6335906 45.4093411,18.6335906 C45.7184873,18.6329357 46.0146433,18.5093645 46.2325302,18.2900585 L50.8901365,13.6324522 L49.2436491,11.9860741 Z" id="Shape"></path>
                        <rect id="Rectangle-path" x="40.7517349" y="18.6335906" width="2.32874854" height="13.9727096"></rect>
                    </g>
                </g>
            </g>
        </g>
    </g>
</svg>