<?xml version="1.0" encoding="UTF-8" standalone="no"?>
<!-- Created with Inkscape (http://www.inkscape.org/) -->

<svg
   xmlns:dc="http://purl.org/dc/elements/1.1/"
   xmlns:cc="http://creativecommons.org/ns#"
   xmlns:rdf="http://www.w3.org/1999/02/22-rdf-syntax-ns#"
   xmlns:svg="http://www.w3.org/2000/svg"
   xmlns="http://www.w3.org/2000/svg"
   xmlns:sodipodi="http://sodipodi.sourceforge.net/DTD/sodipodi-0.dtd"
   xmlns:inkscape="http://www.inkscape.org/namespaces/inkscape"
   width="51.611851mm"
   height="24.924032mm"
   viewBox="0 0 51.611852 24.924033"
   version="1.1"
   id="svg2337"
   inkscape:version="0.92.4 5da689c313, 2019-01-14"
   sodipodi:docname="system-mode-local-standalone.svg">
  <defs
     id="defs2331" />
  <sodipodi:namedview
     id="base"
     pagecolor="#ffffff"
     bordercolor="#666666"
     borderopacity="1.0"
     inkscape:pageopacity="0.0"
     inkscape:pageshadow="2"
     inkscape:zoom="5.6"
     inkscape:cx="168.56146"
     inkscape:cy="45.94359"
     inkscape:document-units="mm"
     inkscape:current-layer="layer1"
     showgrid="false"
     fit-margin-top="0"
     fit-margin-bottom="0"
     fit-margin-right="0"
     fit-margin-left="0"
     inkscape:window-width="3200"
     inkscape:window-height="1746"
     inkscape:window-x="0"
     inkscape:window-y="-20"
     inkscape:window-maximized="1" />
  <metadata
     id="metadata2334">
    <rdf:RDF>
      <cc:Work
         rdf:about="">
        <dc:format>image/svg+xml</dc:format>
        <dc:type
           rdf:resource="http://purl.org/dc/dcmitype/StillImage" />
        <dc:title></dc:title>
      </cc:Work>
    </rdf:RDF>
  </metadata>
  <g
     inkscape:label="Layer 1"
     inkscape:groupmode="layer"
     id="layer1"
     transform="translate(-5.6085024,-106.87029)">
    <path
       inkscape:export-ydpi="60"
       inkscape:export-xdpi="60"
       sodipodi:nodetypes="cccccccccccc"
       inkscape:connector-curvature="0"
       id="path19955-4-4"
       d="m 38.45727,116.75927 0.0024,-0.48244 h 13.573853 v 2.6395 h 0.607867 l -0.819899,1.40381 -0.926034,-1.40448 0.662702,0.003 -0.02819,-2.16583 -15.423711,-0.009 -0.115602,0.0173 z"
       style="fill:#f8961d;fill-opacity:1;stroke:none;stroke-width:0.00799231px;stroke-linecap:butt;stroke-linejoin:miter;stroke-opacity:1" />
    <path
       inkscape:connector-curvature="0"
       id="path12606"
       d="m 35.896174,124.23636 c -0.120938,-0.055 -0.264959,-0.20763 -0.294126,-0.31185 -0.02619,-0.0935 -0.02619,-12.59916 0,-12.69272 0.02918,-0.1042 0.173188,-0.2569 0.294126,-0.31185 0.09976,-0.0453 0.268354,-0.0477 3.362836,-0.0483 2.939304,0 3.264593,0.003 3.327334,0.0413 0.03825,0.023 0.66127,0.71876 1.384506,1.54606 1.199783,1.37241 1.316366,1.5139 1.330783,1.61524 0.0087,0.0611 0.01238,2.29806 0.0083,4.97105 -0.0075,4.47119 -0.01106,4.86633 -0.05122,4.93862 -0.06086,0.10999 -0.175114,0.21275 -0.289695,0.26062 -0.08678,0.0362 -0.581287,0.0406 -4.532508,0.0401 -4.233254,0 -4.439899,-0.003 -4.540152,-0.0483 z m 1.510142,-0.90585 c 0.34925,-0.074 0.595394,-0.26762 0.701775,-0.55191 0.09172,-0.24515 0.109252,-0.52379 0.101378,-1.61112 l -0.0075,-1.03485 h -0.340586 -0.340595 l -0.01545,1.11347 c -0.0158,1.13918 -0.0227,1.21356 -0.126468,1.35927 -0.09818,0.13788 -0.356111,0.19549 -0.610563,0.13639 -0.125347,-0.0291 -0.137385,-0.0126 -0.174194,0.24111 -0.04041,0.27857 -0.0385,0.30042 0.02835,0.32166 0.202337,0.0642 0.549193,0.0757 0.783823,0.0259 z m 1.935448,-0.0736 c 0.01381,-0.0324 0.06202,-0.19452 0.107087,-0.36025 0.04506,-0.1657 0.09298,-0.3222 0.106506,-0.34775 0.02228,-0.0421 0.0661,-0.0458 0.474025,-0.0393 l 0.449447,0.007 0.119544,0.39301 0.119542,0.393 0.372948,0.007 c 0.351706,0.007 0.372947,0.004 0.372947,-0.0426 0,-0.0831 -0.946053,-3.10717 -0.978496,-3.12787 -0.01654,-0.0106 -0.22792,-0.0194 -0.469593,-0.0196 -0.430665,0 -0.439917,0 -0.465452,0.0585 -0.04232,0.0957 -0.942211,3.05431 -0.942211,3.09771 0,0.0335 0.05529,0.0397 0.354272,0.0397 0.342427,0 0.35509,-0.002 0.379434,-0.059 z m 0.340654,-1.33616 c 0,-0.018 0.05171,-0.22142 0.114728,-0.45196 0.06302,-0.23055 0.128723,-0.48763 0.146066,-0.5713 0.01945,-0.0938 0.04332,-0.14821 0.06211,-0.14197 0.01688,0.006 0.07308,0.16837 0.125114,0.36171 0.05196,0.19337 0.124232,0.45176 0.160549,0.57427 0.03633,0.12247 0.06086,0.23154 0.05454,0.24232 -0.0067,0.0107 -0.158112,0.0197 -0.337367,0.0197 -0.243385,0 -0.325906,-0.008 -0.325782,-0.0328 z m 2.960362,0.76631 0.01315,-0.61567 0.142815,-0.008 c 0.182099,-0.0101 0.349617,0.0523 0.430739,0.16108 0.06893,0.0924 0.106174,0.2013 0.225618,0.65921 0.1202,0.46076 0.08999,0.43524 0.505359,0.42648 0.212016,-0.004 0.344422,-0.0175 0.341821,-0.0335 -0.01423,-0.0877 -0.254371,-0.92781 -0.300863,-1.0521 -0.037,-0.0989 -0.09941,-0.19327 -0.183357,-0.27722 -0.07001,-0.07 -0.12724,-0.1358 -0.12724,-0.14622 0,-0.0104 0.04166,-0.0415 0.09262,-0.0689 0.127182,-0.0685 0.294042,-0.25553 0.359359,-0.40282 0.06859,-0.15472 0.07283,-0.43406 0.0095,-0.62475 -0.05005,-0.15056 -0.215101,-0.3551 -0.337661,-0.41848 -0.294444,-0.15227 -0.694547,-0.20276 -1.322536,-0.16693 -0.230465,0.0133 -0.449969,0.0317 -0.487791,0.0412 l -0.06876,0.0173 v 1.55167 c 0,0.85341 0.0083,1.55987 0.0182,1.56987 0.01,0.01 0.16622,0.0147 0.347139,0.0109 l 0.328941,-0.007 z m 0.0058,-1.58852 0.0075,-0.44192 0.209605,-0.008 c 0.264152,-0.01 0.40381,0.0284 0.513226,0.14134 0.073,0.0753 0.08765,0.11197 0.0971,0.24267 0.01487,0.20646 -0.04132,0.32351 -0.200284,0.41667 -0.103288,0.0605 -0.156475,0.0719 -0.377145,0.0807 l -0.256897,0.0102 z m 2.111023,-1.32484 c 0.02402,-0.024 0.03134,-0.65717 0.03101,-2.69202 0,-1.46331 -0.0096,-2.67496 -0.02069,-2.69252 -0.01545,-0.0242 -0.310538,-0.0338 -1.217308,-0.0393 l -1.196977,-0.007 -0.07267,-0.0726 -0.07267,-0.0726 -0.01315,-1.39454 -0.01304,-1.39457 -3.010125,-0.007 c -2.202638,-0.005 -3.019668,0.002 -3.045693,0.0229 -0.04947,0.0411 -0.05354,8.29994 -0.0042,8.34934 0.04573,0.0457 8.58964,0.0457 8.63536,0 z m -5.07003,-1.35893 c -0.459465,-0.0444 -0.309301,-0.0702 0.492932,-0.0844 0.883311,-0.0156 1.040111,-0.0367 1.392549,-0.18785 0.111668,-0.0479 0.203052,-0.0765 0.203052,-0.0638 0,0.0387 -0.09645,0.12281 -0.203269,0.17731 -0.289329,0.14758 -1.203981,0.22458 -1.885264,0.15863 z m -0.596927,-0.23387 c -0.129685,-0.0126 -0.304527,-0.0369 -0.388543,-0.0546 -0.272188,-0.0573 -0.408549,-0.20329 -0.27641,-0.29585 0.073,-0.0511 0.330985,-0.11076 0.357274,-0.0826 0.01072,0.0113 0.0067,0.0256 -0.0096,0.0313 -0.01595,0.006 -0.0513,0.027 -0.07857,0.0472 -0.08273,0.0614 0.0016,0.11015 0.277913,0.16165 0.363546,0.0677 1.544029,0.0683 1.951871,0.002 0.340456,-0.0561 0.467347,-0.087 0.583872,-0.14159 0.09407,-0.0442 0.120142,-0.0369 0.09586,0.0263 -0.03467,0.0904 -0.360958,0.19814 -0.816576,0.2696 -0.302607,0.0475 -1.349671,0.0706 -1.697117,0.0375 z m 0.293412,-0.54944 c -0.05479,-0.0106 -0.11176,-0.0315 -0.12665,-0.0464 -0.0449,-0.0449 -0.01381,-0.1476 0.05504,-0.18175 0.05504,-0.0273 0.07774,-0.0239 0.153657,0.023 0.08428,0.0521 0.111887,0.0541 0.511823,0.038 0.2325,-0.009 0.497893,-0.0294 0.589743,-0.0444 0.09186,-0.0149 0.173128,-0.0212 0.180586,-0.0136 0.02543,0.0255 -0.05911,0.10185 -0.164282,0.14846 -0.184862,0.082 -0.927695,0.12957 -1.199883,0.0769 z m 0.217488,-0.4213 c -0.221485,-0.0238 -0.344398,-0.0567 -0.435523,-0.11639 -0.08131,-0.0533 -0.08015,-0.13738 0.0024,-0.17502 0.05546,-0.0253 0.07142,-0.0212 0.111455,0.0282 0.09004,0.11122 0.643726,0.12246 1.329841,0.027 0.111204,-0.0155 0.20878,-0.0215 0.216855,-0.0135 0.04315,0.0432 -0.09768,0.12134 -0.304204,0.1689 -0.202505,0.0467 -0.316127,0.0634 -0.63268,0.0933 -0.05047,0.005 -0.180136,-0.002 -0.288208,-0.0126 z m 1.787644,-0.25422 c 0.185502,-0.18752 0.25555,-0.31103 0.235577,-0.41547 -0.01564,-0.0815 -0.114744,-0.15951 -0.248415,-0.19552 -0.07782,-0.0209 -0.0971,-0.0358 -0.07508,-0.0578 0.04423,-0.0442 0.34502,-0.0536 0.421661,-0.0131 0.09947,0.0525 0.184195,0.19688 0.184195,0.31372 0,0.19848 -0.10669,0.31668 -0.419208,0.46445 -0.276535,0.13074 -0.300355,0.1075 -0.09871,-0.0963 z m -2.150224,-0.21813 c -0.198919,-0.0259 -0.4079,-0.0919 -0.449614,-0.14212 -0.05429,-0.0654 -0.01913,-0.15427 0.08048,-0.20297 0.116591,-0.057 0.458052,-0.0932 0.381492,-0.0404 -0.137766,0.095 -0.160697,0.12169 -0.130826,0.15212 0.05895,0.06 0.620242,0.0869 1.135287,0.0542 0.266999,-0.0169 0.535819,-0.0405 0.597377,-0.0524 0.257744,-0.0499 0.09108,0.0944 -0.190905,0.16523 -0.328192,0.0824 -1.042408,0.11571 -1.423263,0.0663 z m 1.139436,-0.52857 c 0.01254,-0.1292 0.0058,-0.14838 -0.105161,-0.31593 -0.140928,-0.21226 -0.194445,-0.41361 -0.147619,-0.55547 0.01654,-0.0502 0.08383,-0.14502 0.149458,-0.21065 0.159517,-0.15951 0.584031,-0.4081 0.584031,-0.34198 0,0.006 -0.08808,0.0958 -0.195737,0.2002 -0.12878,0.12485 -0.210634,0.22874 -0.239236,0.3037 l -0.04348,0.1139 0.121656,0.24266 c 0.132696,0.26464 0.141277,0.31375 0.08032,0.45961 -0.03983,0.0954 -0.15971,0.24151 -0.198122,0.24151 -0.01072,0 -0.01347,-0.0619 -0.0058,-0.13755 z m -0.599871,-0.20256 c -0.292555,-0.32326 -0.372216,-0.64118 -0.223322,-0.89128 0.093,-0.15621 0.293479,-0.34965 0.590924,-0.57008 0.321175,-0.23805 0.368366,-0.30999 0.437972,-0.66784 0.01955,-0.10058 0.0518,-0.0898 0.08747,0.0293 0.100237,0.33451 -0.0158,0.55862 -0.50922,0.9834 -0.363395,0.31287 -0.413496,0.38848 -0.391364,0.59071 0.01288,0.11786 0.10432,0.43275 0.184846,0.63671 0.03525,0.0893 -0.03717,0.044 -0.177303,-0.11087 z"
       style="fill:#f8961d;fill-opacity:1;stroke-width:0.02619953" />
    <rect
       style="opacity:1;fill:#fbfbfb;fill-opacity:1;stroke:none;stroke-width:0.10350776;stroke-miterlimit:4;stroke-dasharray:none;stroke-dashoffset:0;stroke-opacity:1"
       id="rect12608"
       width="8.6986008"
       height="9.0039415"
       x="36.079987"
       y="114.52578" />
    <path
       style="fill:#5e5e5e;fill-opacity:1;stroke-width:0.02516576"
       d="m 36.075747,123.97365 c -0.116176,-0.0528 -0.254524,-0.19945 -0.282527,-0.29956 -0.02519,-0.0898 -0.02519,-12.10201 0,-12.19188 0.02802,-0.10009 0.166351,-0.24676 0.282527,-0.29956 0.09581,-0.0436 0.257755,-0.0458 3.230139,-0.0464 2.823327,0 3.135779,0.003 3.196043,0.0397 0.03675,0.0221 0.63518,0.69041 1.329883,1.48508 1.15243,1.31825 1.264417,1.45415 1.278268,1.5515 0.0084,0.0587 0.0118,2.20738 0.0075,4.77491 -0.0067,4.29476 -0.01072,4.6743 -0.04922,4.74374 -0.05845,0.10565 -0.168209,0.20436 -0.278257,0.25033 -0.08336,0.0348 -0.558356,0.039 -4.353684,0.0385 -4.066212,0 -4.264708,-0.002 -4.360995,-0.0464 z m 1.450552,-0.87011 c 0.335465,-0.0711 0.571899,-0.25706 0.674074,-0.53014 0.08811,-0.23547 0.104952,-0.50312 0.09738,-1.54753 l -0.0075,-0.99405 h -0.32716 -0.32716 l -0.01487,1.06955 c -0.01513,1.09423 -0.02177,1.16568 -0.121473,1.30565 -0.09431,0.13243 -0.342066,0.18777 -0.586467,0.131 -0.120425,-0.0279 -0.131964,-0.012 -0.167317,0.23159 -0.03883,0.26757 -0.037,0.28858 0.02727,0.30898 0.194355,0.0617 0.527535,0.0728 0.752893,0.0249 z m 1.859073,-0.0707 c 0.01331,-0.0312 0.05961,-0.18685 0.102873,-0.34604 0.04332,-0.15916 0.0893,-0.30948 0.102291,-0.33402 0.02146,-0.0405 0.06352,-0.044 0.455316,-0.0378 l 0.43172,0.007 0.114814,0.3775 0.114837,0.37749 0.358232,0.007 c 0.337818,0.007 0.358238,0.004 0.358238,-0.0409 0,-0.0798 -0.908722,-2.98458 -0.939908,-3.00445 -0.01595,-0.0101 -0.2189,-0.0186 -0.451043,-0.0189 -0.413679,0 -0.42255,0 -0.447104,0.0562 -0.04066,0.0919 -0.90502,2.9338 -0.90502,2.97548 0,0.0322 0.05313,0.0382 0.340288,0.0382 0.328938,0 0.341077,-0.002 0.364466,-0.0566 z m 0.327211,-1.28345 c 0,-0.0173 0.04964,-0.21266 0.110204,-0.43412 0.06053,-0.22145 0.12365,-0.46839 0.140306,-0.54875 0.01871,-0.0901 0.04157,-0.14237 0.0597,-0.13636 0.01622,0.005 0.07026,0.16171 0.120174,0.34743 0.04997,0.18573 0.119327,0.43394 0.154207,0.5516 0.03492,0.11764 0.05845,0.2224 0.05238,0.23277 -0.0058,0.0104 -0.15186,0.0189 -0.324067,0.0189 -0.233783,0 -0.313052,-0.008 -0.312925,-0.0314 z m 2.843569,0.73609 0.01254,-0.5914 0.13717,-0.007 c 0.174932,-0.01 0.335823,0.0503 0.413745,0.15473 0.06618,0.0888 0.101981,0.19336 0.216712,0.63319 0.115443,0.44258 0.08644,0.41808 0.485416,0.40966 0.203665,-0.004 0.330835,-0.0167 0.328339,-0.0322 -0.01363,-0.0843 -0.244332,-0.8912 -0.288996,-1.0106 -0.03558,-0.095 -0.09548,-0.18563 -0.176115,-0.26628 -0.06718,-0.0672 -0.122229,-0.13043 -0.122229,-0.14046 0,-0.01 0.04008,-0.0398 0.08897,-0.0662 0.122163,-0.0658 0.282448,-0.24546 0.345178,-0.38693 0.06593,-0.14863 0.06992,-0.41694 0.0091,-0.60011 -0.04806,-0.14462 -0.20661,-0.34109 -0.324366,-0.40197 -0.282802,-0.14626 -0.667107,-0.19476 -1.270328,-0.16033 -0.221361,0.0127 -0.432212,0.0304 -0.468545,0.0396 l -0.0661,0.0165 v 1.49044 c 0,0.81974 0.0075,1.49832 0.01746,1.50794 0.0096,0.01 0.159661,0.0142 0.333452,0.0106 l 0.315936,-0.007 z m 0.0058,-1.52586 0.0067,-0.42448 0.201321,-0.007 c 0.25373,-0.01 0.387871,0.0274 0.492982,0.13576 0.07009,0.0723 0.08419,0.10755 0.09329,0.2331 0.01437,0.1983 -0.03974,0.31073 -0.19241,0.40022 -0.0992,0.0581 -0.150273,0.0691 -0.362255,0.0776 l -0.246769,0.01 z m 2.027719,-1.27256 c 0.0231,-0.0231 0.0301,-0.63124 0.02985,-2.5858 0,-1.40557 -0.0091,-2.5694 -0.01995,-2.58627 -0.01471,-0.0233 -0.298276,-0.0324 -1.169268,-0.0377 l -1.149745,-0.007 -0.06976,-0.0697 -0.06976,-0.0698 -0.01257,-1.33951 -0.01254,-1.33954 -2.891353,-0.007 c -2.115738,-0.005 -2.900527,0.002 -2.925527,0.022 -0.04747,0.0394 -0.05138,7.97244 -0.0042,8.01988 0.0439,0.0439 8.250714,0.0439 8.294629,0 z m -4.869976,-1.30529 c -0.441349,-0.0427 -0.297104,-0.0674 0.473485,-0.0811 0.84845,-0.0151 0.999056,-0.0353 1.337598,-0.18044 0.107273,-0.046 0.19503,-0.0735 0.19503,-0.0612 0,0.0372 -0.09264,0.11795 -0.195255,0.1703 -0.277905,0.14177 -1.15647,0.21573 -1.810858,0.15239 z m -0.573379,-0.22466 c -0.124566,-0.012 -0.292515,-0.0355 -0.373205,-0.0525 -0.261454,-0.055 -0.392435,-0.19526 -0.26551,-0.28417 0.07009,-0.0491 0.317924,-0.1064 0.343173,-0.0793 0.0104,0.0109 0.0058,0.0246 -0.0091,0.0301 -0.01529,0.006 -0.0493,0.0259 -0.07549,0.0454 -0.07948,0.059 0.0016,0.10581 0.266973,0.15529 0.349194,0.065 1.483093,0.0655 1.87484,0.002 0.327017,-0.054 0.448905,-0.0835 0.560848,-0.13599 0.09034,-0.0424 0.115395,-0.0355 0.09207,0.0253 -0.03334,0.0868 -0.346699,0.19033 -0.784349,0.25897 -0.290661,0.0456 -1.296411,0.0678 -1.630172,0.036 z m 0.28184,-0.52776 c -0.05263,-0.0102 -0.107366,-0.0303 -0.121674,-0.0446 -0.04315,-0.0432 -0.01331,-0.14179 0.05288,-0.17459 0.05288,-0.0263 0.07466,-0.023 0.147588,0.022 0.08098,0.05 0.107471,0.052 0.491635,0.0365 0.223322,-0.009 0.478248,-0.0282 0.566478,-0.0427 0.08824,-0.0144 0.16628,-0.0204 0.173456,-0.0131 0.02445,0.0245 -0.05679,0.0978 -0.15779,0.1426 -0.177578,0.0787 -0.891103,0.12446 -1.152541,0.0738 z m 0.208888,-0.40466 c -0.212741,-0.0229 -0.330795,-0.0545 -0.418319,-0.11181 -0.07807,-0.0512 -0.07699,-0.13196 0.0024,-0.16811 0.05321,-0.0243 0.06859,-0.0204 0.107056,0.0271 0.08648,0.10682 0.618318,0.11762 1.277368,0.0259 0.106815,-0.0149 0.200533,-0.0207 0.208301,-0.0129 0.04141,0.0414 -0.09383,0.11654 -0.292208,0.16224 -0.194495,0.0448 -0.303646,0.0609 -0.607727,0.0896 -0.04847,0.004 -0.173003,-0.002 -0.276825,-0.012 z m 1.717106,-0.2442 c 0.178208,-0.18012 0.245473,-0.29876 0.226306,-0.39906 -0.01487,-0.0782 -0.110214,-0.15323 -0.238619,-0.18782 -0.07475,-0.0201 -0.09329,-0.0343 -0.07217,-0.0555 0.04257,-0.0425 0.331409,-0.0515 0.405043,-0.0126 0.09554,0.0505 0.176911,0.1891 0.176911,0.30133 0,0.19065 -0.102484,0.30419 -0.402654,0.44613 -0.265617,0.12558 -0.288499,0.10326 -0.09483,-0.0925 z m -2.065361,-0.20953 c -0.191079,-0.0248 -0.391821,-0.0882 -0.431887,-0.13651 -0.05213,-0.0628 -0.01836,-0.14817 0.07724,-0.19496 0.111996,-0.0548 0.439971,-0.0895 0.366454,-0.0388 -0.132348,0.0913 -0.154371,0.11689 -0.125677,0.14612 0.05662,0.0577 0.595786,0.0834 1.090496,0.0521 0.256474,-0.0162 0.514688,-0.0389 0.573815,-0.0503 0.247573,-0.0479 0.08748,0.0906 -0.183383,0.15869 -0.315246,0.0792 -1.001268,0.11115 -1.367089,0.0637 z m 1.094473,-0.50771 c 0.01196,-0.12409 0.0058,-0.14253 -0.101018,-0.30346 -0.135366,-0.20389 -0.186775,-0.3973 -0.141804,-0.53356 0.01596,-0.0482 0.08057,-0.13929 0.143574,-0.20233 0.153215,-0.15323 0.560991,-0.39199 0.560991,-0.32849 0,0.006 -0.08461,0.092 -0.188011,0.1923 -0.123716,0.11993 -0.202321,0.21973 -0.229817,0.29171 l -0.04182,0.10942 0.116851,0.23308 c 0.127458,0.2542 0.135713,0.30136 0.07716,0.44148 -0.03825,0.0916 -0.153408,0.23198 -0.190307,0.23198 -0.01013,0 -0.01288,-0.0594 -0.0058,-0.13213 z m -0.576199,-0.19455 c -0.281025,-0.31053 -0.357542,-0.61589 -0.214519,-0.85612 0.08932,-0.15006 0.281913,-0.33585 0.567611,-0.54759 0.308504,-0.22867 0.353816,-0.29777 0.420679,-0.64149 0.01879,-0.0966 0.0498,-0.0863 0.08403,0.0281 0.09627,0.32133 -0.01513,0.53658 -0.489133,0.94462 -0.349067,0.30051 -0.397184,0.37314 -0.375922,0.56739 0.01238,0.1132 0.10021,0.41568 0.177551,0.61158 0.03384,0.0858 -0.03567,0.0422 -0.170302,-0.10648 z"
       id="path12610"
       inkscape:connector-curvature="0" />
    <text
       id="text12614"
       y="127.65516"
       x="34.672199"
       style="font-style:normal;font-weight:normal;font-size:1.92452848px;line-height:1.25;font-family:sans-serif;letter-spacing:0px;word-spacing:0px;fill:#000000;fill-opacity:1;stroke:none;stroke-width:0.04811321"
       xml:space="preserve"><tspan
         style="stroke-width:0.04811321"
         y="127.65516"
         x="34.672199"
         id="tspan12612"
         sodipodi:role="line">Java Library</tspan></text>
    <rect
       style="opacity:1;fill:#fbfbfb;fill-opacity:1;stroke:none;stroke-width:0.05842263;stroke-miterlimit:4;stroke-dasharray:none;stroke-dashoffset:0;stroke-opacity:1"
       id="rect12630"
       width="4.6245646"
       height="5.3954492"
       x="37.369762"
       y="113.47124" />
    <path
       inkscape:connector-curvature="0"
       id="path12632"
       d="m 36.848524,114.61566 2.296813,-1.68289 2.325706,1.65399 -0.01437,2.47378 -2.307656,1.65038 -2.271538,-1.67567 z"
       style="fill:none;stroke:#fee0b9;stroke-width:0.21619214;stroke-linecap:butt;stroke-linejoin:miter;stroke-miterlimit:4;stroke-dasharray:none;stroke-opacity:1" />
    <path
       sodipodi:nodetypes="cccsccccccccccccccccccccccccccccccccccccccccsccccccccccccccccscccccsccccccccccc"
       inkscape:connector-curvature="0"
       id="path12634"
       d="m 43.224982,119.261 c -0.18387,-0.0178 -0.123783,-0.0281 0.197265,-0.0337 0.353484,-0.006 0.41624,-0.0147 0.557284,-0.0752 0.04473,-0.0191 0.08123,-0.0306 0.08123,-0.0254 0,0.0155 -0.03858,0.0491 -0.08131,0.0709 -0.115784,0.0591 -0.481822,0.0899 -0.754459,0.0635 z m -0.238879,-0.0936 c -0.05188,-0.005 -0.12187,-0.0147 -0.155493,-0.0219 -0.108926,-0.0229 -0.163502,-0.0814 -0.110614,-0.11838 0.02918,-0.0205 0.132455,-0.0443 0.142965,-0.0331 0.0042,0.004 0.0024,0.0101 -0.0042,0.0126 -0.0067,0.002 -0.02053,0.0109 -0.03143,0.019 -0.03309,0.0245 0,0.0441 0.111228,0.0647 0.145476,0.027 0.617911,0.0273 0.781121,0.002 0.136232,-0.0224 0.187024,-0.0348 0.233649,-0.0567 0.03766,-0.0176 0.04806,-0.0147 0.03841,0.0106 -0.01378,0.0362 -0.14446,0.0793 -0.326795,0.10789 -0.121086,0.019 -0.540123,0.0283 -0.679153,0.0151 z m 0.117417,-0.21989 c -0.02196,-0.004 -0.04473,-0.0126 -0.05072,-0.0185 -0.01796,-0.018 -0.0058,-0.0591 0.02204,-0.0727 0.02204,-0.0109 0.03109,-0.01 0.06144,0.009 0.03376,0.0209 0.04481,0.0216 0.204824,0.0153 0.09305,-0.004 0.199253,-0.0118 0.236019,-0.0178 0.03675,-0.006 0.06926,-0.009 0.07225,-0.006 0.01013,0.0101 -0.02371,0.0407 -0.06577,0.0594 -0.074,0.0328 -0.371253,0.0518 -0.480187,0.0308 z m 0.08703,-0.16859 c -0.08865,-0.009 -0.137819,-0.0227 -0.174302,-0.0466 -0.03251,-0.0213 -0.03201,-0.0549 0.0016,-0.07 0.0222,-0.0102 0.0286,-0.009 0.04465,0.0113 0.036,0.0445 0.257611,0.049 0.532183,0.0109 0.04448,-0.006 0.08356,-0.009 0.08679,-0.005 0.01728,0.0173 -0.03908,0.0486 -0.121737,0.0676 -0.08107,0.0187 -0.126514,0.0254 -0.253207,0.0373 -0.02019,0.002 -0.07209,-0.002 -0.115326,-0.005 z m 0.715404,-0.10174 c 0.07425,-0.0751 0.102267,-0.12447 0.09427,-0.16626 -0.0058,-0.0326 -0.0459,-0.0639 -0.09942,-0.0782 -0.03118,-0.008 -0.03883,-0.0142 -0.0301,-0.0231 0.01762,-0.0176 0.138091,-0.0215 0.168746,-0.005 0.03982,0.021 0.07366,0.0788 0.07366,0.12553 0,0.0794 -0.04265,0.12675 -0.167749,0.18588 -0.110657,0.0523 -0.1202,0.0431 -0.03949,-0.0385 z m -0.860499,-0.0873 c -0.07965,-0.0104 -0.163234,-0.0367 -0.17993,-0.0569 -0.0217,-0.0262 -0.0075,-0.0617 0.03218,-0.0812 0.04664,-0.0228 0.183298,-0.0373 0.152675,-0.0162 -0.05512,0.038 -0.06435,0.0487 -0.05238,0.0609 0.0236,0.024 0.248224,0.0348 0.454319,0.0217 0.106857,-0.007 0.214437,-0.0162 0.23907,-0.0209 0.103147,-0.02 0.03642,0.0377 -0.07641,0.0661 -0.131349,0.033 -0.417171,0.0463 -0.569581,0.0265 z m 0.455983,-0.21151 c 0.005,-0.0517 0.0024,-0.0594 -0.04207,-0.12644 -0.05637,-0.0849 -0.07782,-0.16552 -0.05912,-0.22229 0.0067,-0.0201 0.03359,-0.058 0.05986,-0.0843 0.06385,-0.0639 0.233709,-0.16334 0.233709,-0.13688 0,0.002 -0.03525,0.0383 -0.07832,0.0802 -0.05155,0.05 -0.08428,0.0915 -0.09574,0.12154 l -0.01746,0.0456 0.04872,0.0971 c 0.05313,0.1059 0.05654,0.12558 0.03218,0.18393 -0.01595,0.0382 -0.06394,0.0967 -0.07932,0.0967 -0.0042,0 -0.0058,-0.0248 -0.0024,-0.055 z m -0.240059,-0.0811 c -0.117065,-0.12939 -0.148958,-0.2566 -0.08938,-0.35669 0.03725,-0.0625 0.117457,-0.13991 0.236493,-0.22815 0.128532,-0.0953 0.147404,-0.12405 0.175265,-0.26725 0.0075,-0.0402 0.02069,-0.0359 0.035,0.0118 0.04008,0.13387 -0.0067,0.22354 -0.203777,0.39355 -0.145442,0.1252 -0.165481,0.15547 -0.156625,0.2364 0.005,0.0471 0.04174,0.17318 0.074,0.2548 0.01423,0.0358 -0.01487,0.0176 -0.07092,-0.0444 z"
       style="fill:#5e5e5e;fill-opacity:1;stroke-width:0.01048477" />
    <g
       transform="matrix(0.15673859,0,0,0.15673859,-3.5832075,279.94554)"
       id="g12650">
      <line
         id="line12636"
         y2="-1065.0299"
         x2="272.7081"
         y1="-1049.891"
         x1="272.79596"
         class="st0"
         style="fill:#c9c9c9;stroke:#c9c9c9;stroke-width:0.29287887;stroke-miterlimit:10" />
      <polygon
         transform="matrix(0.29287885,0,0,0.29287885,246.185,-1068.2487)"
         id="polygon12638"
         points="42.36,96.78 90.86,61.76 91.08,61.92 139.14,97.04 138.34,97.39 90.86,62.68 42.8,97.39 "
         class="st1"
         style="fill:#c9c9c9" />
      <polygon
         transform="matrix(0.29287885,0,0,0.29287885,246.185,-1068.2487)"
         id="polygon12640"
         points="138.09,96.48 90.56,130.81 43.19,96.18 41.91,97.1 90.12,132.34 90.56,132.66 139.59,97.25 139.59,45.94 90.78,10.69 90.56,10.53 42.31,45.8 43.13,47.05 90.56,12.38 138.09,46.71 " />
      <polygon
         transform="matrix(0.29287885,0,0,0.29287885,246.185,-1068.2487)"
         id="polygon12642"
         points="90.57,82.92 90.57,81.07 90.56,81.07 42.31,45.8 42.31,47.66 90.12,82.61 90.56,82.93 " />
      <g
         transform="matrix(0.29287885,0,0,0.29287885,246.185,-1068.2487)"
         id="g12648">
        <line
           id="line12644"
           y2="82.93"
           x2="90.57"
           y1="82.93"
           x1="90.57"
           class="st2"
           style="fill:#f8961d" />
        <polygon
           id="polygon12646"
           points="90.57,81.07 90.58,81.07 90.58,82.92 139.6,47.52 139.6,45.94 "
           class="st2"
           style="fill:#f8961d" />
      </g>
    </g>
    <g
       id="g12666"
       transform="matrix(0.15673859,0,0,0.15673859,-3.5832075,279.94554)">
      <line
         style="fill:#c9c9c9;stroke:#c9c9c9;stroke-width:0.29287887;stroke-miterlimit:10"
         class="st0"
         x1="272.79596"
         y1="-1049.891"
         x2="272.7081"
         y2="-1065.0299"
         id="line12652" />
      <polygon
         style="fill:#c9c9c9"
         class="st1"
         points="42.36,96.78 90.86,61.76 91.08,61.92 139.14,97.04 138.34,97.39 90.86,62.68 42.8,97.39 "
         id="polygon12654"
         transform="matrix(0.29287885,0,0,0.29287885,246.185,-1068.2487)" />
      <polygon
         points="138.09,96.48 90.56,130.81 43.19,96.18 41.91,97.1 90.12,132.34 90.56,132.66 139.59,97.25 139.59,45.94 90.78,10.69 90.56,10.53 42.31,45.8 43.13,47.05 90.56,12.38 138.09,46.71 "
         id="polygon12656"
         transform="matrix(0.29287885,0,0,0.29287885,246.185,-1068.2487)" />
      <polygon
         points="90.57,82.92 90.57,81.07 90.56,81.07 42.31,45.8 42.31,47.66 90.12,82.61 90.56,82.93 "
         id="polygon12658"
         transform="matrix(0.29287885,0,0,0.29287885,246.185,-1068.2487)" />
      <g
         id="g12664"
         transform="matrix(0.29287885,0,0,0.29287885,246.185,-1068.2487)">
        <line
           style="fill:#f8961d"
           class="st2"
           x1="90.57"
           y1="82.93"
           x2="90.57"
           y2="82.93"
           id="line12660" />
        <polygon
           style="fill:#f8961d"
           class="st2"
           points="90.57,81.07 90.58,81.07 90.58,82.92 139.6,47.52 139.6,45.94 "
           id="polygon12662" />
      </g>
    </g>
    <rect
       y="107.05413"
       x="5.7923479"
       height="24.556341"
       width="51.24416"
       id="rect12796"
       style="opacity:1;fill:none;fill-opacity:1;stroke:#00c4c1;stroke-width:0.36769104;stroke-miterlimit:4;stroke-dasharray:none;stroke-dashoffset:0;stroke-opacity:1"
       rx="5.38868"
       ry="5.38868" />
    <text
       id="text12802"
       y="122.63001"
       x="9.5117674"
       style="font-style:normal;font-weight:normal;font-size:3.0360713px;line-height:1.25;font-family:sans-serif;letter-spacing:0px;word-spacing:0px;fill:#00697c;fill-opacity:0.49074079;stroke:none;stroke-width:0.07590178"
       xml:space="preserve"><tspan
         style="font-weight:bold;fill:#00697c;fill-opacity:0.49074079;stroke-width:0.07590178"
         y="122.63001"
         x="9.5117674"
         id="tspan12798"
         sodipodi:role="line">Your</tspan><tspan
         id="tspan12800"
         style="font-weight:bold;fill:#00697c;fill-opacity:0.49074079;stroke-width:0.07590178"
         y="126.4251"
         x="9.5117674"
         sodipodi:role="line">Application</tspan></text>
    <path
       style="fill:#f8961d;fill-opacity:1;stroke-width:0.0195229"
       d="m 46.994919,121.1411 v -1.97913 l 0.05371,-0.009 c 0.02952,-0.005 0.386326,-0.007 0.79288,-0.005 l 0.739185,0.004 0.354287,0.35391 0.354291,0.35389 h 0.795366 0.795356 v 0.14569 0.14568 l -0.854122,-0.0113 -0.854131,-0.0113 -0.351597,-0.3492 -0.351594,-0.34921 h -0.600144 -0.600144 v 1.4203 c 0,1.17029 0.005,1.4117 0.02585,1.37148 0.01379,-0.0269 0.16913,-0.41488 0.345136,-0.86229 0.295532,-0.75124 0.323808,-0.81409 0.369438,-0.821 0.02719,-0.004 1.125625,-0.006 2.440974,-0.005 2.343867,0.002 2.391482,0.003 2.388264,0.0401 -0.0016,0.0205 -0.115919,0.60185 -0.253595,1.29174 l -0.250309,1.25434 h -2.669966 -2.669942 z m 5.307613,0.70312 c 0.108818,-0.55148 0.197847,-1.00831 0.197847,-1.01519 0,-0.007 -0.978254,-0.0126 -2.173912,-0.0126 h -2.173904 l -0.393366,1.00095 c -0.216339,0.55053 -0.393351,1.00736 -0.393351,1.01519 0,0.007 1.066252,0.0142 2.369431,0.0142 H 52.1047 Z"
       id="path12815"
       inkscape:connector-curvature="0"
       sodipodi:nodetypes="cccccccccccccccccccccccscccccssccsscc" />
    <text
       id="text12032-8-0-7"
       y="115.7714"
       x="45.779484"
       style="font-style:normal;font-weight:normal;font-size:1.17628849px;line-height:1.25;font-family:sans-serif;letter-spacing:0px;word-spacing:0px;fill:#000000;fill-opacity:1;stroke:none;stroke-width:0.02940721"
       xml:space="preserve"><tspan
         style="font-weight:normal;stroke-width:0.02940721"
         y="115.7714"
         x="45.779484"
         sodipodi:role="line"
         id="tspan12852">Filesystem</tspan></text>
  </g>
</svg>
