<?xml version="1.0" encoding="utf-8"?>
<svg version="1.1" id="Layer_1" x="0px" y="0px" viewBox="0 0 500 500" width="500px" height="598.837px" xmlns="http://www.w3.org/2000/svg">
  <style>
.rib--grey {
    stroke: rgb(201, 201, 201);
    stroke-width: 5px;
    stroke-miterlimit: 10px;
}
.rib6 {
    stroke-width: 6px;
}
.rib--black {
    stroke: #000;
}
.rib--orange {
    fill: rgb(248, 150, 29);
}
</style>
  <line class="rib rib--grey rib--bottom-left" x1="240.306" y1="213.861" x2="59.718" y2="348.481" style=""/>
  <line class="rib rib--grey rib--center-back-left" x1="239.229" y1="216.266" x2="240.029" y2="23.084" id="line14" style=""/>
  <line class="rib rib--grey rib--bottom-back" x1="240.102" y1="215.169" x2="421.783" y2="346.618" style=""/>
  <line class="rib rib--black rib--center-right rib6" x1="421.561" y1="346.396" x2="421.561" y2="155.9" style=""/>
  <polygon class="rib rib--top-front" points="57.455 161.428 237.866 293.309 239.525 294.519 239.563 294.482 239.563 287.501 239.525 287.501 57.455 154.412" style=""/>
  <polygon class="rib rib--bottom-front" points="57.46 352.937 236.9 480.682 238.549 481.852 238.588 481.816 238.588 475.055 238.549 475.055 57.46 346.141" style=""/>
  <polygon class="rib rib--bottom-right" points="238.272 474.458 422.558 343.157 424.253 341.954 424.292 341.991 424.292 348.941 424.253 348.941 238.272 481.442" transform="matrix(-1, 0, 0, -1, 662.563995, 823.395996)" style=""/>
  <polygon class="rib rib--top-back" points="239.638 26.674 421.85 157.195 423.539 158.396 423.578 158.358 423.578 151.432 423.539 151.432 240.397 21.034" transform="matrix(-1, 0, 0, -1, 663.216003, 179.43)" style=""/>
  <polygon class="rib rib--top-left" points="57.513 153.196 237.954 22.093 239.613 20.891 239.651 20.929 239.651 27.867 239.613 27.867 57.513 160.17" style=""/>
  <polygon class="rib rib--orange rib--top-right" points="239.563 287.405 239.601 287.405 239.601 294.482 423.953 160.025 423.864 152.373" style=""/>
</svg>